<svg xmlns="http://www.w3.org/2000/svg" xmlns:xlink="http://www.w3.org/1999/xlink" width="1920" zoomAndPan="magnify" viewBox="0 0 1440 809.999993" height="1080" preserveAspectRatio="xMidYMid meet" version="1.0"><path fill="#ffa732" d="M 631.242188 281.253906 C 631.242188 249.269531 605.292969 223.320312 573.308594 223.320312 C 541.304688 223.320312 515.371094 249.269531 515.371094 281.253906 C 518.347656 358.0625 628.28125 358.046875 631.242188 281.253906 " fill-opacity="1" fill-rule="nonzero"/><path fill="#ffa732" d="M 742.554688 396.308594 C 743.070312 396.355469 743.441406 396.8125 743.472656 397.332031 C 743.484375 397.496094 743.542969 397.628906 743.722656 397.671875 C 747.125 398.53125 750.621094 399.09375 754.082031 398.707031 C 756.867188 398.410156 759.546875 397.523438 762.136719 396.503906 C 768.398438 394.046875 774.332031 390.757812 780.667969 388.449219 C 787.003906 386.15625 793.960938 384.867188 800.472656 386.570312 C 805.34375 387.828125 809.664062 390.699219 813.453125 394 C 808.867188 395.421875 805.015625 398.753906 801.257812 401.875 C 797.496094 405 793.382812 408.105469 788.542969 408.789062 C 787.136719 408.980469 785.714844 408.949219 784.339844 409.246094 C 779.957031 410.164062 773.28125 415.714844 774.082031 417.285156 C 774.96875 418.4375 779.097656 414.945312 781.363281 414.117188 C 783.199219 413.464844 784.53125 414.074219 786.46875 414.324219 C 793.292969 415.226562 799.808594 412.679688 806.066406 409.824219 C 803.65625 414.367188 799.480469 417.386719 794.820312 418.46875 C 793.546875 418.765625 792.140625 418.972656 791.238281 419.917969 C 789.667969 421.5625 790.496094 424.402344 789.3125 426.34375 C 788.855469 427.097656 788.128906 427.660156 787.609375 428.371094 C 787.195312 428.964844 786.945312 429.761719 787.152344 430.414062 C 787.226562 430.652344 787.519531 430.738281 787.730469 430.589844 C 789.550781 429.214844 791.042969 427.425781 792.09375 425.394531 C 792.464844 424.671875 792.804688 423.871094 793.425781 423.339844 C 793.902344 422.9375 794.492188 422.730469 795.085938 422.539062 C 798.964844 421.28125 803.078125 420.894531 807.03125 419.859375 C 810.984375 418.824219 814.949219 417.003906 817.289062 413.644531 C 818.292969 412.207031 818.976562 410.519531 820.21875 409.277344 C 821.773438 407.722656 824.1875 407.070312 826.300781 407.632812 C 833.761719 411.4375 842.453125 412.621094 850.503906 410.800781 C 854.914062 409.792969 859.652344 407.960938 863.75 409.855469 C 865.558594 410.699219 867.023438 412.207031 868.902344 412.886719 C 871.640625 413.878906 874.703125 412.976562 877.5625 413.496094 C 880.167969 413.984375 882.460938 415.613281 885.097656 415.820312 C 887.167969 415.96875 889.3125 415.210938 891.296875 415.863281 C 893.058594 416.457031 894.480469 418.082031 896.183594 418.558594 C 896.699219 418.691406 897.160156 418.144531 896.90625 417.667969 C 896.152344 416.261719 894.9375 415.109375 893.59375 414.25 C 891.933594 413.183594 890.054688 412.503906 888.21875 411.808594 C 884.015625 410.210938 879.753906 408.375 876.539062 405.222656 C 875.179688 404.082031 873.789062 402.617188 872.632812 400.988281 C 872.46875 400.75 872.292969 400.453125 872.453125 400.1875 C 872.542969 400.011719 872.765625 399.921875 872.972656 399.9375 C 873.34375 399.964844 873.625 400.21875 873.921875 400.425781 C 875.058594 401.195312 876.539062 401.148438 877.917969 401.0625 C 878.273438 401.03125 878.671875 401.003906 878.921875 400.75 C 879.234375 400.425781 879.21875 399.90625 879.441406 399.523438 C 879.707031 399.09375 880.242188 398.902344 880.582031 398.515625 C 881.21875 397.847656 881.054688 396.769531 880.804688 395.882812 C 880.523438 394.992188 880.195312 394.015625 880.550781 393.171875 C 880.714844 392.816406 880.980469 392.519531 881.054688 392.152344 C 881.128906 391.796875 881.039062 391.425781 880.921875 391.101562 C 879.738281 387.800781 876.109375 385.5625 872.648438 386.023438 C 872.234375 386.066406 871.832031 386.15625 871.417969 386.082031 C 871.09375 386.023438 870.78125 385.84375 870.457031 385.710938 C 868.664062 384.988281 866.355469 386.066406 865.75 387.917969 C 861 386.96875 856.4375 389.855469 852.027344 391.515625 C 838.648438 396.53125 828.96875 388.777344 818 392.019531 C 810.539062 385.121094 800.28125 380.664062 790.230469 382.070312 C 787.300781 382.484375 784.457031 383.375 781.628906 384.277344 C 779.070312 385.089844 776.507812 385.917969 774.023438 386.957031 C 767.835938 389.515625 761.957031 393.957031 755.296875 394.652344 C 751.417969 395.066406 747.453125 393.765625 743.945312 392.03125 C 743.765625 391.945312 743.558594 392.0625 743.542969 392.269531 L 743.53125 392.492188 C 743.515625 392.933594 743.101562 393.246094 742.65625 393.140625 C 742.003906 393.007812 741.324219 392.949219 740.644531 392.980469 C 740.347656 392.996094 740.097656 393.214844 740.023438 393.511719 C 739.917969 393.957031 739.472656 394.328125 739 394.578125 C 738.777344 394.695312 738.777344 395.007812 738.984375 395.140625 C 740.066406 395.792969 741.296875 396.191406 742.554688 396.308594 " fill-opacity="1" fill-rule="nonzero"/><path fill="#ffa732" d="M 215.648438 492.894531 C 215.664062 492.894531 215.679688 492.878906 215.691406 492.863281 C 215.722656 492.863281 215.738281 492.847656 215.753906 492.832031 C 215.722656 492.863281 215.679688 492.878906 215.648438 492.894531 " fill-opacity="1" fill-rule="nonzero"/><path fill="#ffa732" d="M 230.199219 503.046875 C 230.167969 503.0625 230.15625 503.078125 230.125 503.078125 C 230.09375 503.105469 230.066406 503.121094 230.035156 503.136719 C 230.09375 503.105469 230.140625 503.078125 230.199219 503.046875 " fill-opacity="1" fill-rule="nonzero"/><path fill="#ffa732" d="M 100.03125 514.859375 C 98.964844 507.324219 99.128906 499.746094 99.128906 492.167969 C 99.851562 481.390625 105.316406 466.902344 106.929688 463.703125 C 108.628906 460.417969 110.539062 456.347656 113.085938 453.667969 C 116.890625 453.710938 122.542969 453.328125 124.21875 456.644531 C 129.441406 466.398438 145.917969 469.253906 148.832031 469.253906 C 153.40625 472.71875 158.925781 479.214844 161.324219 484.617188 C 164.476562 492.34375 157.375 508.953125 143.917969 521.625 C 130.226562 534.515625 125.238281 553.105469 115.542969 568.914062 C 111.355469 560.921875 109.414062 552.085938 106.941406 543.472656 C 104.234375 534.058594 101.273438 524.628906 100.03125 514.859375 Z M 88.175781 420.453125 C 79.398438 414.21875 70.738281 407.382812 60.421875 403.902344 C 50.238281 400.234375 39.402344 399.285156 28.847656 397.125 C 21.019531 395.703125 16.222656 392.816406 12.238281 385.832031 C 22.4375 385.800781 29.425781 379.109375 33.257812 370.140625 C 34.859375 365.980469 35.613281 361.15625 39.195312 358.164062 C 43.589844 354.019531 50.042969 355.695312 55.3125 353.800781 C 60.863281 351.769531 65.558594 348.042969 70.425781 344.8125 C 70.410156 344.8125 70.398438 344.828125 70.382812 344.828125 C 74.171875 342.296875 78.730469 340.699219 83.304688 340.964844 C 89.164062 341.78125 93.117188 346.886719 98.015625 349.726562 C 106.914062 355.367188 118.3125 358.742188 127.546875 352.039062 C 129.765625 353.578125 132.046875 355.042969 134.089844 356.832031 C 134.058594 356.820312 134.046875 356.804688 134.03125 356.789062 C 137.820312 360.03125 140.75 364.027344 144.878906 366.898438 C 152.164062 371.945312 160.761719 374.625 169.125 377.363281 C 171.257812 378.058594 173.375 378.753906 175.476562 379.511719 C 175.445312 379.496094 175.402344 379.480469 175.371094 379.464844 C 178.007812 380.355469 180.582031 381.417969 183.085938 382.648438 C 185.273438 389.5 189.300781 395.835938 189.433594 403.207031 C 182.476562 409.113281 174.484375 413.703125 167.882812 420.039062 C 155.40625 418.335938 126.140625 410.046875 97.839844 428.238281 C 94.300781 424.683594 92.230469 423.398438 88.175781 420.453125 Z M 86.722656 461.144531 C 83.910156 461.128906 64.222656 462.859375 57.058594 463.109375 C 50.933594 463.320312 44.804688 462.769531 38.722656 462.089844 C 33.109375 461.46875 28.390625 457.722656 23.875 454.539062 C 20.957031 452.5 18.042969 450.425781 15.171875 448.292969 C 6.453125 441.8125 -13.972656 430.382812 -14.804688 430 C -13.011719 413.953125 -19.421875 398.472656 -27.976562 385.207031 C -23.300781 383.863281 -18.414062 382.929688 -13.53125 383.195312 C -10.035156 383.476562 -6.589844 384.070312 -3.140625 384.632812 C -2.042969 384.808594 0.5625 390.050781 1.285156 391.113281 C 13.15625 410.355469 24.660156 408.949219 44.566406 412.296875 C 45.898438 412.5625 47.171875 413.066406 48.488281 413.375 C 58.761719 415.863281 70.160156 430.695312 74.867188 435.078125 C 69.359375 436.421875 59.382812 440.980469 61.515625 448.027344 C 63.648438 452.261719 69.554688 451.667969 73.566406 452.203125 C 77.902344 452.46875 88.441406 454.023438 89.402344 454.230469 C 89.375 454.320312 87.523438 458.90625 86.722656 461.144531 Z M -21.550781 427.410156 C -26.867188 425.457031 -50.238281 426.652344 -70.414062 391.457031 C -65.367188 392.078125 -60.332031 393.140625 -55.226562 392.832031 C -48.09375 392.164062 -41.136719 389.988281 -34.460938 387.53125 C -34.058594 388.289062 -27.710938 400.898438 -25.90625 406.671875 C -25.90625 406.65625 -25.90625 406.640625 -25.917969 406.628906 C -24.601562 410.917969 -21.109375 419.179688 -21.550781 427.410156 Z M 145.785156 351.535156 C 145.769531 351.535156 145.753906 351.535156 145.738281 351.535156 C 147.898438 351.949219 150.015625 352.613281 152.105469 353.324219 C 152.089844 353.308594 152.058594 353.308594 152.042969 353.296875 C 152.105469 353.324219 152.164062 353.339844 152.207031 353.355469 C 152.175781 353.355469 152.148438 353.339844 152.132812 353.324219 C 157.210938 355.175781 162.363281 357.21875 167.824219 357.558594 C 167.808594 357.558594 167.808594 357.558594 167.808594 357.558594 C 167.867188 357.558594 167.941406 357.574219 168 357.574219 C 167.984375 357.574219 167.984375 357.574219 167.984375 357.574219 C 171.375 357.796875 174.75 357.945312 178.15625 358.078125 C 178.421875 362.515625 178.835938 366.988281 179.796875 371.339844 C 167.394531 367.742188 163.960938 368.792969 153.523438 359.363281 C 153.539062 359.363281 153.539062 359.378906 153.539062 359.378906 C 150.386719 356.523438 147.175781 353.753906 143.785156 351.195312 C 144.449219 351.296875 145.117188 351.402344 145.785156 351.535156 Z M 190.382812 358.460938 C 194.957031 358.726562 208.308594 357.945312 209.238281 357.929688 C 216.0625 357.796875 222.902344 357.632812 229.738281 357.453125 C 232.109375 357.394531 234.402344 356.773438 236.59375 355.871094 C 245.371094 352.644531 256.546875 345.582031 265.988281 347.730469 C 265 348.457031 263.992188 349.152344 262.96875 349.816406 C 262.984375 349.816406 262.984375 349.816406 263 349.800781 C 257.464844 353.457031 251.378906 356.136719 245.445312 359.007812 C 236.355469 363.421875 227.5625 368.527344 219.542969 374.683594 C 211.179688 381.125 204.710938 389.351562 196.996094 396.472656 C 196.347656 389.21875 193.84375 382.277344 191.742188 375.351562 C 190.042969 369.769531 189.269531 363.96875 188.855469 358.179688 C 188.902344 358.328125 189.464844 358.417969 190.382812 358.460938 Z M 273.820312 351.105469 C 276.054688 352.527344 277.699219 354.582031 279.578125 356.390625 C 281.929688 358.492188 284.433594 360.5625 287.46875 361.554688 C 289.613281 362.355469 291.90625 362.5625 294.082031 363.226562 C 298.480469 364.679688 302.285156 366.957031 303.71875 371.621094 C 305.023438 375.351562 306.148438 379.300781 308.871094 382.277344 C 312.675781 386.734375 318.035156 389.679688 323.925781 389.976562 C 323.910156 389.976562 323.894531 389.976562 323.878906 389.960938 C 334.136719 391.039062 343.9375 386.257812 354.164062 387.117188 C 354.148438 387.101562 354.121094 387.101562 354.089844 387.101562 C 354.164062 387.101562 354.222656 387.117188 354.285156 387.117188 C 354.285156 387.117188 354.269531 387.117188 354.253906 387.117188 C 357.464844 387.355469 360.664062 387.769531 363.832031 388.390625 C 374.933594 391.101562 377.300781 390.757812 388.03125 387.058594 C 387.988281 387.074219 387.957031 387.074219 387.929688 387.089844 C 391.925781 385.800781 395.949219 384.617188 400.035156 383.59375 C 401.425781 391.351562 402.894531 406.699219 402.625 415.980469 C 401.339844 418.691406 386.671875 427.867188 381.207031 431.9375 C 380.734375 432.292969 376.144531 429.273438 375.523438 428.902344 C 373.601562 427.777344 371.691406 426.609375 369.75 425.484375 C 365.902344 423.265625 362.304688 421.828125 357.96875 420.761719 C 349.207031 418.617188 340.089844 417.816406 331.089844 418.425781 C 320.355469 419.148438 309.699219 420.835938 298.910156 420.6875 C 294.957031 420.628906 290.855469 420.511719 286.949219 419.683594 C 282.507812 418.75 278.230469 417.179688 273.996094 415.582031 C 267.5 413.140625 260.78125 410.59375 253.734375 410.535156 C 246.660156 410.476562 239.6875 411.421875 232.730469 412.8125 C 229.191406 405.53125 224.128906 398.972656 218.785156 392.933594 C 218.296875 392.476562 217.957031 391.972656 217.453125 391.617188 C 219.703125 388.730469 229.296875 378.074219 232.035156 375.75 C 232.019531 375.75 232.019531 375.765625 232.019531 375.765625 C 238.324219 370.421875 246.023438 367.003906 253.511719 363.554688 C 253.480469 363.566406 253.46875 363.582031 253.4375 363.582031 C 258.335938 361.304688 263.175781 358.890625 267.601562 355.769531 C 269.71875 354.300781 271.820312 352.761719 273.820312 351.105469 Z M 424.800781 383.078125 C 428.871094 384.824219 432.6875 387.148438 436.894531 388.597656 C 448.140625 392.832031 456.875 389.902344 467.460938 397.9375 C 459.15625 399.152344 450.761719 399.773438 442.519531 401.359375 C 433.472656 403.445312 414.15625 410.136719 413.152344 410.164062 C 412.160156 405.695312 407.835938 383.535156 407.570312 381.90625 C 410.78125 381.125 420.832031 381.761719 424.800781 383.078125 Z M 302.582031 468.085938 C 302.152344 468.277344 291.714844 473.308594 286.476562 474.359375 C 280.363281 475.25 274.160156 475.472656 268.121094 476.847656 C 265.414062 477.410156 262.75 478.121094 260.128906 479.039062 C 257.613281 479.898438 252.417969 481.703125 252.34375 481.71875 C 257.699219 470.082031 258.722656 465.109375 255.09375 452.378906 C 255.65625 452.335938 262.867188 452.691406 265.722656 452.511719 C 265.722656 452.511719 265.707031 452.511719 265.695312 452.511719 C 272.207031 452.039062 278.675781 452.972656 285.144531 453.519531 C 288.742188 453.832031 292.351562 453.710938 295.949219 453.667969 C 301.175781 453.625 306.398438 453.816406 311.476562 455.117188 C 314.125 455.800781 316.714844 456.6875 319.230469 457.769531 C 320.847656 458.464844 322.429688 459.234375 323.96875 460.089844 C 323.777344 459.988281 307.433594 465.96875 302.582031 468.085938 Z M 187.4375 421.132812 C 189.9375 419.28125 192.410156 417.375 194.835938 415.433594 C 201.46875 410.28125 207.582031 404.464844 212.660156 397.746094 C 215.367188 401.980469 220.148438 408.492188 221.894531 414.753906 C 211.429688 417.328125 194.675781 422.347656 187.4375 421.132812 Z M 250.300781 466.085938 C 250.0625 467.121094 249.738281 468.144531 249.382812 469.152344 C 249.324219 469.3125 246.171875 479.304688 242.617188 482.679688 C 240.796875 484.324219 238.371094 484.871094 236.074219 485.492188 C 229 487.136719 222.117188 489.429688 215.691406 492.863281 C 211.621094 495.394531 206.871094 497.40625 202.429688 499.183594 C 197.769531 501.046875 192.792969 502.160156 187.894531 503.195312 C 182.804688 504.277344 177.785156 505.683594 172.679688 506.746094 C 172.691406 506.746094 172.707031 506.746094 172.722656 506.734375 C 171.597656 506.96875 170.457031 507.160156 169.316406 507.265625 C 173.640625 492.847656 175.90625 484.605469 169.464844 470.1875 C 169.527344 470.289062 186.074219 475.042969 194.257812 474.539062 C 202.742188 474.003906 210.203125 471.222656 217.261719 466.664062 C 220.074219 464.84375 222.84375 462.949219 225.730469 461.246094 C 232.550781 457.191406 240.011719 454.082031 247.8125 452.574219 C 249.648438 456.761719 251.160156 461.484375 250.300781 466.085938 Z M 137.878906 724.972656 C 144.585938 716.046875 144.585938 701.4375 155.480469 695.960938 C 154.5625 701.273438 156.8125 705.195312 158.632812 709.976562 C 159.859375 713.765625 160.464844 717.703125 161.382812 721.566406 C 160.230469 726.214844 151.304688 730.050781 154.515625 735.050781 C 154.828125 735.808594 154.945312 736.652344 155.09375 737.464844 C 147.75 736.265625 138.515625 734.503906 127.53125 732.949219 C 131.515625 731.21875 135.066406 728.644531 137.878906 724.972656 Z M 162.714844 730.566406 C 162.777344 732.152344 162.863281 733.898438 162.996094 735.628906 C 163.058594 736.324219 163.117188 737.035156 163.425781 737.65625 C 163.589844 737.984375 163.8125 738.339844 163.8125 738.695312 C 163.308594 738.632812 162.789062 738.5625 162.289062 738.5 C 160.023438 737.894531 159.59375 737.777344 158.527344 734.476562 C 158.511719 734.03125 158.941406 733.707031 159.3125 733.46875 C 160.539062 732.625 161.695312 731.648438 162.714844 730.566406 Z M 171.183594 724.792969 C 171.332031 724.410156 171.628906 724.097656 171.894531 723.789062 C 173.996094 721.421875 175.667969 718.695312 176.835938 715.75 C 179.886719 716.726562 183.378906 716.785156 186.59375 715.871094 C 182.773438 723.847656 179.785156 732.210938 177.667969 740.796875 C 177.179688 740.722656 171.375 739.417969 169.511719 739.019531 C 170.414062 734.328125 170.664062 729.53125 171.183594 724.792969 Z M 197.648438 715.320312 C 200.800781 714.9375 204.117188 714.582031 207.003906 715.839844 C 207.078125 717.957031 207.167969 720.074219 207.269531 722.175781 C 207.359375 723.964844 207.449219 725.773438 208.011719 727.472656 C 208.839844 729.929688 210.585938 731.945312 212.289062 733.898438 C 214.671875 736.621094 217.054688 739.332031 219.421875 742.054688 C 220.28125 743.03125 221.140625 744.007812 221.820312 745.117188 C 222.324219 745.933594 222.78125 746.851562 223.464844 747.5 C 208.277344 745.785156 196.40625 743.902344 186.222656 742.214844 C 186.207031 741.089844 184.964844 740.234375 183.882812 740.144531 C 183.304688 740.085938 183.054688 739.804688 183.292969 739.257812 C 186.265625 731.070312 190.484375 723.359375 195.785156 716.433594 C 196.199219 715.78125 196.863281 715.335938 197.648438 715.320312 Z M 405.144531 720.5625 C 405.394531 717.734375 406.164062 714.996094 406.710938 712.199219 C 406.890625 712.480469 407.082031 712.746094 407.257812 713.027344 C 407.246094 713.011719 407.230469 712.996094 407.214844 712.984375 C 407.820312 713.945312 408.371094 714.9375 408.84375 715.972656 C 408.84375 715.972656 408.859375 715.972656 408.859375 715.972656 C 408.859375 715.988281 408.859375 715.988281 408.871094 716.003906 C 410.367188 719.40625 411.730469 722.898438 412.898438 726.453125 C 413.875 729.796875 414.824219 733.15625 415.917969 736.457031 C 415.917969 736.445312 415.902344 736.414062 415.902344 736.398438 C 417.222656 740.929688 418.730469 745.398438 420.359375 749.824219 C 421.441406 752.949219 422.890625 755.9375 424.960938 758.5 L 410.796875 758.5 C 409.863281 755.984375 408.546875 753.613281 407.539062 751.128906 C 406.535156 748.683594 406.222656 746.050781 405.75 743.476562 C 404.609375 735.894531 404.445312 728.183594 405.144531 720.5625 Z M 417.503906 688.988281 C 417.933594 685.082031 418.996094 681.277344 419.929688 677.488281 C 420.671875 674.972656 421.601562 672.515625 421.941406 669.910156 C 424.238281 670.738281 426.605469 671.433594 429.003906 671.832031 L 428.972656 671.832031 C 432.378906 672.292969 435.796875 672.648438 439.246094 672.601562 C 441.75 672.589844 444.265625 672.648438 446.738281 672.144531 C 446.527344 674.4375 446.382812 676.746094 445.996094 679.011719 C 446.011719 678.996094 446.011719 678.96875 446.011719 678.953125 C 445.09375 683.835938 444.546875 688.765625 444.25 693.726562 C 443.96875 697.738281 443.019531 701.703125 442.933594 705.746094 C 442.945312 708.082031 443.273438 710.40625 443.523438 712.730469 C 443.894531 716.121094 443.671875 719.570312 443.125 722.914062 C 442.222656 728.273438 441.246094 733.617188 440.460938 738.988281 C 440.460938 738.976562 440.460938 738.960938 440.460938 738.929688 C 440.269531 740.144531 440.074219 741.359375 439.882812 742.558594 C 439.882812 742.542969 439.882812 742.542969 439.882812 742.542969 C 439.558594 744.183594 439.484375 745.859375 439.425781 747.53125 C 439.304688 749.839844 439.246094 752.339844 440.269531 754.472656 C 440.535156 754.960938 440.949219 755.421875 441.023438 755.984375 C 441.050781 756.738281 440.832031 757.640625 440.726562 758.5 L 434.582031 758.5 C 434.449219 758.304688 434.316406 758.144531 434.230469 758.011719 C 433.445312 756.960938 432.289062 756.308594 431.328125 755.464844 C 430.070312 753.71875 429.402344 751.601562 428.5 749.660156 C 425.449219 742.808594 422.933594 735.75 421.1875 728.449219 C 419.117188 720.917969 417.605469 713.203125 417.503906 705.359375 C 417.488281 699.914062 416.941406 694.4375 417.503906 688.988281 Z M 447.3125 746.894531 C 447.445312 744.273438 447.640625 741.667969 448.007812 739.0625 C 448.839844 734.089844 449.105469 729.042969 449.890625 724.070312 C 449.875 724.085938 449.875 724.097656 449.875 724.113281 C 450.199219 722.160156 450.628906 720.207031 451.015625 718.253906 C 451.457031 716.296875 451.652344 714.269531 452.449219 712.421875 C 453.441406 710.480469 454.566406 708.570312 455.160156 706.46875 C 455.839844 704.207031 456.046875 701.851562 456.445312 699.527344 C 456.460938 699.5 456.460938 699.453125 456.460938 699.425781 C 457.066406 695.917969 457.542969 692.378906 458.414062 688.929688 C 459.257812 694.347656 459.183594 699.824219 458.84375 705.285156 C 458.621094 710.273438 458.652344 715.277344 459.035156 720.265625 C 459.597656 727.53125 460.828125 734.757812 460.753906 742.054688 C 460.664062 745.871094 459.6875 749.855469 461.152344 753.527344 C 461.730469 755.152344 462.722656 756.617188 463.105469 758.320312 C 463.121094 758.378906 463.121094 758.441406 463.136719 758.5 L 450.183594 758.5 C 450.007812 757.921875 449.726562 757.390625 449.28125 756.960938 C 446.675781 754.324219 447.179688 750.296875 447.3125 746.894531 Z M 546.488281 755.050781 C 546.929688 753.777344 547.300781 752.488281 547.613281 751.1875 C 547.90625 749.855469 548.160156 748.507812 548.335938 747.160156 C 548.707031 744.421875 548.617188 741.640625 548.425781 738.886719 C 548.335938 737.480469 548.21875 736.074219 548.101562 734.667969 C 547.980469 733.261719 547.507812 727.621094 547.433594 726.214844 C 547.40625 725.503906 547.332031 722.691406 547.300781 721.996094 C 546.976562 714.136719 547.921875 706.335938 548.632812 698.507812 C 548.914062 694.644531 549.933594 690.882812 550.144531 687.003906 C 551.695312 685.835938 553.488281 683.972656 552.746094 681.871094 C 552.613281 681.425781 552.257812 681.027344 552.363281 680.550781 C 552.835938 679.128906 554.582031 679.546875 555.722656 679.203125 C 558.210938 678.480469 559.15625 673.90625 561.925781 674.082031 C 564.722656 674.289062 566.707031 674.320312 568.898438 675.105469 C 570.925781 675.828125 572.953125 676.6875 575.128906 676.835938 C 578.207031 677.089844 581.195312 676.15625 584.007812 674.972656 C 586.421875 674.261719 589.085938 673.726562 591.589844 674.214844 C 592.742188 678.140625 591.898438 682.296875 591.601562 686.296875 C 590.890625 695 590.953125 703.730469 590.449219 712.433594 C 590.167969 716.34375 589.695312 720.25 589.753906 724.171875 C 590.195312 733.675781 592.296875 741.59375 586.601562 750.238281 C 585.445312 751.824219 583.832031 753.125 582.988281 754.945312 C 582.441406 756.027344 582.308594 757.492188 583.03125 758.5 L 573.824219 758.5 C 565.359375 757.390625 558.996094 756.382812 557.011719 755.6875 C 555.828125 755.273438 551.964844 755.554688 546.117188 756.292969 C 546.28125 755.730469 546.398438 755.285156 546.488281 755.050781 Z M 600.898438 757.121094 C 602.320312 754.5625 602.527344 751.601562 602.851562 748.757812 C 603.042969 747.085938 603.355469 745.429688 603.429688 743.757812 C 603.992188 737.199219 604.613281 730.625 606.019531 724.171875 C 606.6875 720.976562 607.085938 717.734375 608.507812 714.746094 C 609.023438 717.410156 608.832031 720.132812 608.804688 722.828125 C 608.742188 728.570312 608.699219 734.417969 610.015625 740.027344 C 611.585938 746.109375 617.875 748.832031 623.292969 750.652344 C 624.730469 751.203125 626.285156 751.558594 627.75 752.046875 C 630.8125 753.15625 633.964844 754.5625 637.265625 754.710938 C 643.085938 754.191406 641.054688 741.136719 640.199219 737.65625 C 639.503906 734.84375 637.949219 732.847656 634.675781 733.363281 C 633.136719 733.585938 632.128906 734.90625 630.992188 735.851562 C 630.339844 736.398438 629.539062 736.726562 628.726562 737.007812 C 625.601562 737.9375 623.488281 737.523438 623.425781 733.824219 C 623.367188 730.464844 624.34375 727.179688 624.90625 723.878906 C 626.386719 715.882812 628.28125 707.949219 630.472656 700.136719 C 640.539062 704.175781 651.210938 707.699219 662.179688 707.640625 C 662.164062 709.488281 662.132812 711.339844 662.03125 713.175781 C 662.058594 723.730469 664.441406 736.546875 655.355469 744.257812 C 652.957031 746.152344 650.292969 748.300781 649.820312 751.496094 C 649.773438 753.597656 651.714844 754.917969 653.429688 755.714844 C 655.578125 756.871094 657.871094 757.699219 660.164062 758.5 L 599.507812 758.5 C 600.039062 758.160156 600.527344 757.730469 600.898438 757.121094 Z M 675.175781 752.742188 C 676.523438 748.121094 677.277344 743.371094 677.46875 738.5625 C 677.617188 735.125 677.453125 731.679688 677.867188 728.242188 C 678.296875 725.253906 678.742188 722.265625 678.859375 719.242188 C 678.949219 714.195312 682.8125 710.40625 685.3125 706.320312 C 686.542969 705.980469 687.84375 705.90625 689.117188 705.9375 C 690.09375 705.953125 691.085938 705.699219 692.0625 705.863281 C 692.714844 706.054688 693.128906 706.675781 693.589844 707.164062 C 694.296875 707.980469 694.890625 708.867188 695.632812 709.683594 C 697.066406 711.117188 698.621094 712.464844 700.265625 713.632812 C 702.070312 714.847656 703.785156 716.152344 705.445312 717.558594 C 706.941406 719.171875 707.472656 721.433594 708.109375 723.507812 C 708.523438 725.285156 709.070312 727.042969 709.515625 728.820312 C 710.179688 732.921875 710.550781 737.082031 710.757812 741.238281 C 698.871094 744.835938 686.054688 749.425781 674.835938 753.671875 C 674.96875 753.316406 675.070312 753.007812 675.175781 752.742188 Z M 843.886719 573.164062 C 842.746094 571.269531 841.535156 569.417969 840.277344 567.597656 C 839.785156 566.027344 839.269531 564.460938 838.707031 562.90625 C 836.21875 556.15625 833.320312 549.511719 829.410156 543.441406 C 822.824219 532.5625 812.953125 524.464844 803.167969 516.621094 C 797.082031 511.75 790.601562 507.222656 785.480469 501.285156 C 790.675781 499.300781 795.648438 496.652344 801.125 495.4375 C 801.109375 495.4375 801.109375 495.4375 801.09375 495.4375 C 801.125 495.4375 801.167969 495.425781 801.199219 495.410156 C 801.183594 495.425781 801.152344 495.425781 801.125 495.4375 C 805.714844 494.179688 810.480469 494.371094 815.15625 495.054688 C 817.671875 504.71875 823.207031 513.054688 828.582031 521.34375 C 831.824219 526.109375 835.289062 530.742188 837.804688 535.953125 C 840.140625 540.613281 841.84375 545.542969 843.621094 550.441406 C 847.320312 560.550781 852.101562 574.480469 849.761719 584.855469 C 848.03125 580.859375 846.121094 576.910156 843.886719 573.164062 Z M 818.324219 543.707031 C 809.546875 537.949219 799.703125 533.921875 789.683594 530.917969 C 789.699219 530.933594 789.699219 530.933594 789.710938 530.933594 C 789.667969 530.917969 789.636719 530.917969 789.59375 530.902344 C 789.609375 530.902344 789.625 530.917969 789.652344 530.917969 C 789.519531 530.875 789.402344 530.832031 789.28125 530.800781 C 789.3125 530.800781 789.355469 530.816406 789.402344 530.832031 C 780.742188 527.765625 772.289062 524.15625 763.453125 521.625 C 761.882812 519.34375 760.226562 517.125 758.671875 514.828125 C 758.703125 514.859375 758.730469 514.902344 758.761719 514.949219 C 756.066406 510.90625 753.460938 506.820312 751.0625 502.632812 C 757.785156 502.054688 764.371094 504.214844 771.078125 504.347656 C 774.71875 504.277344 778.300781 503.386719 781.824219 502.453125 C 784.976562 506.628906 788.304688 510.699219 792.007812 514.398438 C 795.691406 518.144531 799.867188 521.34375 803.65625 524.953125 C 807.386719 528.625 811.042969 532.398438 814.609375 536.234375 C 814.519531 536.144531 814.445312 536.054688 814.371094 535.964844 C 814.476562 536.085938 814.578125 536.203125 814.683594 536.320312 C 814.667969 536.308594 814.652344 536.277344 814.625 536.261719 C 817.6875 539.710938 820.515625 543.382812 822.972656 547.289062 C 821.492188 546.015625 819.9375 544.832031 818.324219 543.707031 Z M 734.070312 507.636719 C 736.335938 506.808594 738.527344 505.84375 740.777344 505 C 740.777344 505 740.761719 505 740.761719 505.015625 C 742.613281 504.320312 744.507812 503.714844 746.429688 503.3125 C 749.140625 508.746094 752.53125 513.792969 756.097656 518.707031 C 755.933594 518.632812 741.027344 511.660156 734.070312 507.636719 Z M 833.171875 497.601562 C 832.667969 501.847656 831.632812 505.992188 830.773438 510.179688 C 830.300781 512.445312 830.699219 514.726562 831.171875 516.945312 C 831.113281 516.648438 829.839844 515.199219 829.574219 514.84375 C 827.207031 511.617188 825.207031 508.242188 823.417969 504.675781 C 821.9375 501.746094 820.617188 498.738281 819.417969 495.707031 C 819.699219 495.75 828.820312 497.496094 833.171875 497.601562 Z M 835.273438 510.09375 C 835.300781 508.789062 835.554688 507.53125 835.671875 506.230469 C 835.671875 505.59375 836.292969 497.71875 836.339844 497.734375 C 843.296875 497.984375 850.296875 496.488281 856.78125 494.003906 C 852.042969 524.214844 874.351562 528.417969 874.585938 548.828125 C 874.15625 555.3125 870.679688 560.9375 868.148438 566.753906 C 866.058594 571.640625 859.074219 585.554688 857.992188 585.433594 C 859.117188 569.582031 853.167969 554.527344 846.816406 540.316406 C 844.359375 535.183594 841.753906 530.058594 838.246094 525.5625 C 837.109375 520.453125 835.109375 515.390625 835.273438 510.09375 Z M 860.035156 496.269531 C 860.109375 495.054688 860.167969 493.824219 860.230469 492.613281 C 860.230469 492.34375 864.164062 491.828125 864.566406 491.769531 C 867.511719 491.382812 870.5 491.367188 873.476562 491.589844 C 875.429688 491.753906 877.382812 492.078125 879.308594 492.417969 C 880.179688 492.566406 881.1875 492.625 881.988281 492.96875 C 882.195312 493.054688 882.964844 493.601562 883.15625 493.5 C 882.195312 494.03125 882.847656 495.496094 882.078125 496.222656 C 882.089844 496.207031 882.089844 496.195312 882.105469 496.179688 C 882.089844 496.207031 882.078125 496.222656 882.046875 496.253906 C 882.0625 496.238281 882.0625 496.238281 882.078125 496.222656 C 879.589844 498.785156 876.597656 501.035156 875.179688 504.421875 C 873.921875 506.910156 874.140625 510.507812 876.6875 512.089844 C 878.65625 513.230469 881.011719 513.1875 883.214844 513.320312 C 883.214844 514.371094 883.171875 515.40625 883.113281 516.441406 C 883.128906 516.382812 883.128906 516.308594 883.128906 516.234375 C 883.128906 516.339844 883.113281 516.441406 883.113281 516.53125 C 882.578125 522.925781 880.878906 529.214844 878.777344 535.257812 C 873.476562 522.613281 862.09375 518.203125 860.582031 503.195312 C 860.597656 503.210938 860.597656 503.222656 860.597656 503.222656 C 860.15625 500.929688 859.828125 498.605469 860.035156 496.269531 Z M 887.242188 529.632812 C 888.441406 524.273438 887.980469 518.78125 887.628906 513.347656 C 892.554688 513.214844 897.542969 513.777344 902.089844 515.792969 C 901.835938 519.609375 901.867188 523.429688 902.25 527.234375 C 902.679688 531.820312 904.207031 536.234375 902.382812 540.734375 C 901.480469 543.707031 900.476562 546.636719 899.363281 549.523438 C 895.976562 552.441406 892.644531 555.460938 889.832031 558.953125 C 882.980469 567.863281 877.886719 577.960938 874.527344 588.660156 C 874.140625 588.574219 873.757812 588.484375 873.371094 588.394531 C 871.804688 587.996094 873.0625 574.570312 874.363281 571.238281 C 876.273438 566.382812 878.65625 561.691406 880.152344 556.675781 C 881.144531 553.300781 881.808594 549.777344 881.585938 546.238281 C 883.824219 540.851562 886.191406 535.402344 887.242188 529.632812 Z M 915.160156 516.992188 C 916.847656 516.738281 918.503906 516.398438 920.160156 515.984375 C 921.6875 515.628906 923.269531 515.007812 924.824219 514.800781 C 924.425781 516.101562 923.789062 517.390625 923.285156 518.679688 C 922.765625 520.011719 922.25 521.34375 921.714844 522.675781 C 919.421875 528.402344 916.785156 534.027344 913.546875 539.265625 C 911.679688 540.527344 909.816406 541.753906 907.980469 543.027344 C 908.527344 541.074219 909.03125 539.089844 909.253906 537.0625 C 909.402344 534.070312 908.570312 531.050781 907.578125 528.253906 C 907.59375 528.269531 907.59375 528.285156 907.609375 528.3125 C 906.128906 524.597656 905.269531 520.660156 905.210938 516.664062 C 908.46875 517.507812 911.859375 517.464844 915.160156 516.992188 Z M 928.109375 513.925781 C 928.15625 513.75 930.125 513.394531 930.40625 513.335938 C 931.234375 513.113281 932.0625 512.90625 932.90625 512.699219 C 934.59375 512.285156 936.296875 511.824219 938.011719 511.453125 C 941.328125 510.773438 944.71875 510.210938 948.109375 510.09375 C 940.144531 518.679688 931.203125 526.210938 921.773438 533.125 C 924.914062 527.160156 926.4375 520.5 928.09375 514 C 928.09375 513.972656 928.109375 513.957031 928.109375 513.925781 Z M 953.199219 510.34375 C 953.421875 510.34375 959.046875 511.378906 959.046875 511.511719 C 958.988281 514.742188 959.652344 517.980469 960.421875 521.089844 C 961.191406 523.753906 962.867188 526.050781 963.5625 528.742188 C 964.09375 530.476562 964.078125 532.222656 963.769531 533.984375 C 963.472656 537.519531 962.804688 541.074219 961.296875 544.300781 C 951.1875 549.570312 941.667969 555.875 931.617188 561.261719 C 930.199219 562.03125 928.761719 562.816406 927.324219 563.585938 C 927.355469 563.570312 927.386719 563.558594 927.414062 563.542969 C 915.144531 570.160156 902.296875 576.109375 891.222656 584.664062 C 891.917969 584.132812 892.289062 581.71875 892.613281 580.90625 C 894.449219 576.300781 896.390625 571.800781 898.789062 567.449219 C 901.273438 562.921875 904.351562 558.71875 907.519531 554.617188 C 908.304688 553.625 909.074219 552.617188 909.859375 551.625 C 913.722656 546.710938 918.164062 542.242188 923.078125 538.347656 C 926.46875 535.671875 929.902344 533.09375 933.21875 530.3125 C 938.425781 525.945312 943.519531 521.429688 947.988281 516.292969 C 949.675781 514.371094 951.261719 512.371094 952.753906 510.316406 C 952.800781 510.253906 953.140625 510.328125 953.199219 510.34375 Z M 975.800781 518.78125 C 979.308594 520.957031 982.65625 523.371094 986.074219 525.679688 C 983.527344 528.300781 981.085938 531.023438 978.496094 533.597656 C 976.097656 535.683594 973.390625 537.386719 970.710938 539.105469 C 971.242188 535.804688 971.242188 532.296875 970.3125 529.082031 C 969.332031 525.21875 966.730469 522.066406 965.75 518.1875 C 965.367188 516.621094 965.070312 515.035156 965.042969 513.421875 C 965.558594 513.703125 975.609375 518.664062 975.800781 518.78125 Z M 990.898438 528.476562 C 1000.996094 533.597656 1008.367188 532.148438 1018.269531 527.707031 C 1018.253906 527.707031 1018.253906 527.707031 1018.238281 527.722656 C 1021.316406 526.433594 1024.589844 525.855469 1027.875 525.457031 C 1021.230469 540.925781 1029.3125 558.671875 1034.667969 573.445312 C 1038.265625 582.207031 1042.011719 591.058594 1043.3125 600.503906 C 1044.171875 607.164062 1044.304688 613.914062 1045.5625 620.53125 C 1046.570312 625.800781 1048.035156 631.007812 1050.167969 635.9375 C 1046.671875 635.433594 1042.957031 635.628906 1039.183594 636.21875 C 1034.460938 637.210938 1029.902344 638.972656 1025.09375 639.550781 C 1024.054688 639.625 1022.929688 639.875 1021.925781 639.550781 C 1021.511719 639.089844 1021.214844 638.515625 1020.816406 638.027344 C 1018.949219 635.464844 1016.640625 633.273438 1014.449219 630.980469 C 1014.996094 630.714844 1016.582031 630.59375 1016.523438 629.855469 C 1016.417969 629.394531 1015.886719 629.21875 1015.558594 628.96875 C 1014.316406 628.109375 1012.953125 627.472656 1011.710938 626.65625 C 1012.273438 626.316406 1013.785156 625.917969 1013.164062 625.015625 C 1011.371094 622.898438 1009.386719 620.871094 1007.078125 619.332031 C 1007.996094 618.976562 1008.957031 618.785156 1009.890625 618.429688 C 1010.632812 618.058594 1010.171875 617.523438 1009.566406 617.363281 C 1007.921875 616.679688 1006.25 615.972656 1004.519531 615.527344 C 1002.949219 615.113281 1001.320312 614.980469 999.75 614.519531 C 1000.492188 613.351562 999.988281 613.011719 998.863281 612.609375 C 997.25 612.046875 995.652344 611.484375 994.082031 610.835938 C 995.503906 609.621094 995.117188 609.027344 993.386719 608.851562 C 990.898438 608.527344 988.398438 608.527344 985.910156 608.703125 C 986.429688 607.976562 987.109375 607.355469 987.523438 606.558594 C 987.746094 605.445312 986.265625 606.070312 985.703125 606.1875 C 983.660156 606.691406 981.78125 607.710938 979.8125 608.390625 C 979.902344 606.734375 980.480469 605.003906 978.066406 606.140625 C 978.199219 605.136719 978.539062 604.144531 978.601562 603.136719 C 978.511719 602.488281 977.902344 602.648438 977.519531 602.929688 C 976.496094 603.566406 975.519531 604.261719 974.5 604.898438 C 973.507812 602.8125 972.648438 604.5 971.644531 605.476562 C 971.242188 604.675781 970.132812 601.507812 968.933594 602.707031 C 968.519531 603.550781 968.195312 604.453125 967.867188 605.34375 C 966.402344 604.589844 966.34375 605.890625 965.605469 606.734375 C 964.375 606.113281 962.6875 604.882812 961.296875 605.625 C 960.761719 606.097656 961.042969 607.089844 960.542969 607.652344 C 960.542969 607.667969 960.542969 607.667969 960.527344 607.683594 C 960.527344 607.683594 960.511719 607.683594 960.511719 607.683594 C 959.757812 607.546875 958.75 606.972656 958.085938 607.59375 C 957.730469 608.039062 958.171875 608.597656 958.054688 609.089844 C 957.402344 608.984375 956.144531 608.644531 955.96875 609.546875 C 956.011719 609.902344 956.101562 610.273438 956.042969 610.640625 C 955.566406 610.480469 954.8125 610.464844 954.574219 610.996094 C 954.472656 611.25 954.605469 611.515625 954.5625 611.78125 C 954.546875 611.828125 954.546875 611.855469 954.53125 611.902344 C 953.453125 611.8125 950.046875 612.269531 949.824219 613.542969 C 949.867188 614.429688 950.949219 614.832031 951.273438 615.617188 C 949.308594 615.230469 946.703125 617.230469 946.214844 619.109375 C 945.117188 622.617188 946.65625 626.066406 949.75 627.929688 C 948.359375 630.121094 946.421875 631.867188 944.941406 633.96875 C 944.320312 634.886719 943.757812 635.835938 943.28125 636.828125 C 943.132812 637.183594 942.824219 637.613281 943.058594 637.980469 C 943.476562 638.441406 943.976562 637.757812 944.390625 637.597656 C 943.933594 639.253906 943.5625 640.925781 943.460938 642.644531 C 943.445312 643.308594 943.207031 644.109375 943.742188 644.640625 C 943.519531 645.738281 943.046875 646.757812 942.851562 647.871094 C 942.632812 648.964844 942.632812 650.089844 942.632812 651.214844 C 942.585938 652.664062 942.898438 653.359375 944.363281 652.472656 C 944.390625 654.753906 944.304688 657.074219 944.984375 659.296875 C 945.117188 659.679688 945.148438 660.167969 945.472656 660.464844 C 945.859375 660.804688 946.496094 660.585938 946.804688 660.230469 C 947.78125 663.410156 949.425781 666.3125 950.785156 669.332031 C 951.453125 670.339844 953.71875 678.777344 955.375 675.949219 C 955.375 675.949219 955.375 675.949219 955.390625 675.949219 C 956.484375 677.371094 957.523438 678.851562 958.734375 680.183594 C 958.367188 681.808594 958.039062 683.453125 957.9375 685.125 C 957.773438 687.640625 958.261719 690.128906 958.585938 692.617188 C 958.632812 692.941406 958.78125 693.371094 959.195312 693.355469 C 959.535156 693.28125 959.890625 693.386719 960.199219 693.546875 C 960.199219 693.546875 960.214844 693.5625 960.214844 693.5625 C 960.421875 694.644531 960.453125 695.78125 960.96875 696.761719 C 961.179688 697.21875 961.460938 697.738281 961.992188 697.855469 C 961.386719 700.136719 960.867188 702.519531 961.324219 704.855469 C 961.5625 706.707031 962.289062 706.101562 963.234375 705.125 L 963.25 705.125 C 963.53125 704.84375 963.8125 704.574219 964.125 704.324219 C 964.199219 707.253906 964.226562 710.214844 965.085938 713.042969 C 965.335938 713.664062 965.457031 714.699219 966.179688 714.878906 C 966.773438 714.863281 966.921875 714.136719 967.203125 713.738281 C 967.660156 712.9375 968.105469 712.09375 968.683594 711.355469 C 968.769531 712.273438 968.488281 713.382812 968.992188 714.195312 C 969.289062 714.507812 969.6875 714.195312 970.015625 714.09375 C 970.042969 715.277344 969.703125 716.445312 969.71875 717.617188 C 970.339844 719.007812 972.753906 714.964844 973.242188 714.449219 C 975.078125 720.53125 976.171875 726.808594 976.824219 733.113281 C 977.265625 736.738281 977.402344 740.46875 977.074219 744.113281 C 963.707031 740.542969 950.429688 737.125 941.625 735.453125 C 914.996094 730.566406 895.355469 726.410156 869.316406 723.523438 C 869.226562 716.996094 868.859375 710.480469 868.992188 703.953125 C 868.992188 703.96875 868.992188 703.984375 868.992188 704 C 869.125 698.449219 870.5 676.421875 871.316406 670.976562 C 873.492188 658.023438 877.960938 645.589844 881.691406 633.023438 C 885.257812 621.566406 891.59375 596.386719 891.917969 596.09375 C 898.507812 590.378906 906.484375 586.707031 914.183594 582.785156 C 926.96875 576.464844 938.5 568.058594 950.429688 560.316406 C 956.898438 556.082031 963.917969 552.679688 970.191406 548.132812 C 977.875 542.480469 984.285156 535.300781 990.898438 528.476562 Z M 1043.519531 743.414062 C 1040.886719 743.058594 1037.304688 743.636719 1036.417969 746.570312 C 1036.015625 748.003906 1035.957031 749.808594 1036.964844 751.007812 C 1031.695312 753.671875 1027.074219 755.640625 1023.910156 755.6875 C 1022.101562 755.703125 1017.320312 754.679688 1010.851562 753.066406 C 1011.328125 748.878906 1011.578125 744.613281 1011.105469 740.410156 C 1010.585938 736.042969 1010.675781 731.617188 1010.378906 727.238281 C 1009.980469 721.582031 1009.226562 715.898438 1009.726562 710.246094 C 1013.382812 711.042969 1017.113281 711.148438 1020.84375 710.910156 C 1026.855469 710.867188 1032.699219 708.851562 1037.734375 705.613281 C 1038.117188 709.769531 1039.390625 713.839844 1041.597656 717.394531 C 1042.484375 718.960938 1043.285156 720.5625 1044.128906 722.160156 C 1044.660156 723.152344 1045.269531 724.128906 1045.609375 725.210938 C 1046.082031 726.824219 1045.964844 728.511719 1045.992188 730.167969 C 1045.875 734.667969 1045.445312 739.269531 1043.519531 743.414062 Z M 997.722656 746.390625 C 997.648438 746.777344 997.488281 747.160156 997.101562 747.339844 C 996.167969 747.871094 995.164062 748.257812 994.1875 748.714844 C 992.203125 748.183594 990.175781 747.632812 988.117188 747.085938 C 988.488281 745.101562 988.859375 743.121094 989.199219 741.136719 C 990.203125 734.683594 991.640625 728.289062 993.667969 722.070312 C 994.480469 726.320312 995.488281 730.539062 996.390625 734.769531 C 997.132812 738.574219 998.449219 742.511719 997.722656 746.390625 Z M 1085.144531 435.003906 C 1083.707031 432.515625 1082.167969 430.058594 1080.40625 427.792969 C 1083.441406 428.222656 1086.445312 429.347656 1089.539062 429.320312 C 1088.949219 431.65625 1087.347656 437.667969 1087.15625 438.289062 C 1086.371094 437.265625 1085.796875 436.113281 1085.144531 435.003906 Z M 1052.667969 414.207031 C 1046.953125 413.96875 1041.285156 412.976562 1035.765625 411.527344 C 1030.199219 403.578125 1028.46875 393.851562 1023.910156 385.402344 C 1024.160156 385.859375 1025.460938 386.40625 1025.90625 386.75 C 1026.660156 387.296875 1027.402344 387.902344 1028.113281 388.507812 C 1036.121094 395.464844 1042.320312 404.171875 1050.195312 411.246094 C 1050.789062 411.777344 1052.875 414.207031 1053.644531 414.191406 C 1053.320312 414.191406 1052.996094 414.207031 1052.667969 414.207031 Z M 987.332031 392.773438 C 991.105469 386.050781 999.914062 383.699219 1006.976562 382.617188 C 1009.996094 382.160156 1013.074219 381.582031 1016.109375 382.175781 C 1018.875 386.082031 1021.023438 390.390625 1022.796875 394.828125 C 1022.785156 394.816406 1022.785156 394.785156 1022.769531 394.757812 C 1024.648438 399.566406 1025.507812 404.746094 1028.113281 409.277344 C 1027.890625 408.890625 991.34375 393.601562 987.332031 392.773438 Z M 1106.429688 432.621094 C 1107.65625 430.605469 1128.171875 415.996094 1138.84375 410.609375 C 1141.804688 409.171875 1153.382812 404.140625 1158.796875 407.960938 C 1161.609375 409.898438 1163.847656 412.578125 1166.792969 414.308594 C 1178.21875 421.164062 1188.996094 406.40625 1197.640625 400.601562 C 1196.097656 405.648438 1194.546875 410.699219 1192.382812 415.523438 C 1191.421875 417.519531 1190.578125 419.625 1189.246094 421.414062 C 1187.945312 422.984375 1186.285156 424.300781 1184.433594 425.175781 C 1182.050781 425.945312 1179.507812 425.484375 1177.078125 425.175781 C 1151.144531 417.640625 1115.945312 438.082031 1103.054688 447.332031 C 1103.144531 446.636719 1104.859375 435.503906 1106.429688 432.621094 Z M 1200.523438 401.519531 C 1200.910156 400.234375 1201.265625 398.914062 1201.8125 397.6875 C 1206.402344 394.757812 1211.746094 392.699219 1217.207031 392.417969 C 1217.175781 392.417969 1217.164062 392.417969 1217.148438 392.417969 C 1217.207031 392.417969 1217.265625 392.417969 1217.3125 392.417969 C 1217.3125 392.417969 1217.296875 392.417969 1217.28125 392.417969 C 1221.882812 392.773438 1226.398438 394.476562 1230.070312 397.300781 C 1235.578125 401.460938 1241.96875 408.269531 1249.296875 408.878906 C 1249.652344 408.90625 1252.363281 408.609375 1252.421875 408.699219 C 1254.019531 410.742188 1255.957031 412.445312 1258.058594 413.953125 C 1254.550781 414.8125 1250.882812 415.566406 1247.773438 417.492188 C 1244.636719 419.550781 1241.617188 421.828125 1238.609375 424.09375 C 1235.132812 426.847656 1231.046875 428.976562 1228.382812 432.621094 C 1228.351562 432.648438 1226.679688 432.621094 1226.53125 432.632812 C 1225.066406 432.78125 1223.703125 433.019531 1222.285156 433.464844 C 1220.878906 433.90625 1219.5 434.441406 1218.09375 434.898438 C 1213.816406 436.1875 1209.523438 437.5625 1205.113281 438.316406 C 1202.40625 438.777344 1199.859375 437.859375 1197.550781 436.511719 C 1197.859375 435.078125 1198.203125 433.65625 1198.570312 432.25 C 1199.058594 430.371094 1196.675781 429.097656 1195.417969 430.578125 C 1195.417969 430.589844 1195.402344 430.605469 1195.390625 430.621094 C 1194.605469 431.582031 1194.175781 432.765625 1193.863281 433.980469 C 1192.222656 432.722656 1190.519531 431.539062 1188.789062 430.398438 C 1195.316406 425.351562 1196.734375 416.957031 1198.453125 409.394531 C 1199.089844 406.6875 1199.785156 403.992188 1200.585938 401.328125 C 1200.554688 401.386719 1200.539062 401.460938 1200.523438 401.519531 Z M 1261.6875 405.53125 C 1264.484375 403.949219 1267.238281 402.289062 1270.140625 400.929688 C 1270.125 400.941406 1270.109375 400.941406 1270.078125 400.957031 C 1273.351562 399.375 1277.050781 399.390625 1280.589844 399.046875 C 1282.261719 399.242188 1283.875 399.640625 1285.445312 400.246094 C 1280.886719 404.050781 1276.460938 408.035156 1272.003906 411.96875 C 1271.898438 412.074219 1268.851562 412.25 1267.679688 412.414062 C 1266.808594 412.546875 1264.5 413.050781 1264.378906 412.976562 C 1261.921875 411.511719 1259.867188 409.5 1257.972656 407.367188 C 1259.257812 406.847656 1260.488281 406.199219 1261.6875 405.53125 Z M 1302.230469 402.347656 C 1302.066406 402.378906 1296.871094 406.332031 1294.308594 407.914062 C 1293.066406 408.699219 1291.378906 409.070312 1289.988281 409.585938 C 1288.242188 410.222656 1283.949219 411.628906 1283.5625 411.761719 C 1283.253906 411.867188 1282.808594 412.105469 1282.484375 412.105469 C 1280.605469 411.851562 1278.722656 411.71875 1276.828125 411.734375 C 1280.410156 408.003906 1284.066406 404.332031 1288.09375 401.078125 C 1288.316406 401.136719 1297.699219 403.132812 1302.230469 402.347656 Z M 1306.152344 403.875 C 1306.816406 403.089844 1307.453125 402.304688 1308.105469 401.519531 C 1308.402344 401.148438 1317.519531 396.8125 1320.050781 395.363281 C 1321.886719 394.3125 1323.589844 393.351562 1325.632812 392.726562 C 1328.324219 391.898438 1331.257812 391.292969 1334.066406 391.21875 C 1334.054688 391.21875 1334.054688 391.21875 1334.039062 391.21875 C 1335.992188 391.234375 1336.660156 393.070312 1337.148438 394.652344 C 1339.21875 400.027344 1345.792969 400.308594 1350.585938 401.609375 C 1351.652344 401.832031 1352.628906 402.335938 1353.25 403.253906 C 1353.25 403.238281 1353.238281 403.238281 1353.238281 403.222656 C 1355 405.191406 1354.582031 407.824219 1355.117188 410.222656 C 1354.96875 410.3125 1349.328125 411.957031 1344.222656 413.464844 C 1339.101562 414.988281 1333.90625 416.261719 1328.605469 416.871094 C 1324.492188 417.269531 1301.207031 415.257812 1293.761719 413.984375 C 1293.96875 414.011719 1295.582031 413.023438 1295.96875 412.8125 C 1296.707031 412.398438 1305.828125 404.257812 1306.152344 403.875 Z M 1250.761719 433.046875 C 1248.511719 434.839844 1245.863281 436.554688 1242.933594 436.925781 C 1240.492188 437.238281 1238.34375 435.933594 1236.210938 434.941406 C 1235.753906 434.722656 1235.28125 434.515625 1234.820312 434.308594 C 1236.183594 433.375 1237.558594 432.410156 1238.863281 431.40625 C 1241.363281 429.464844 1244.21875 427.898438 1247.003906 426.402344 C 1249.90625 424.847656 1252.851562 423.324219 1255.957031 422.242188 C 1259.15625 421.132812 1263.402344 419.742188 1263.878906 419.59375 C 1263.878906 419.59375 1255.691406 429.15625 1250.761719 433.046875 Z M 1191.867188 486.839844 C 1190.84375 483.699219 1188.03125 481.449219 1186.730469 478.417969 C 1185.960938 476.597656 1185.769531 474.554688 1185.679688 472.570312 C 1185.117188 461.113281 1187.160156 449.65625 1186.878906 438.183594 C 1187.113281 438.378906 1190.636719 440.9375 1192.28125 441.855469 C 1191.230469 448.429688 1190.757812 455.117188 1190.652344 461.75 C 1190.535156 470.140625 1191.097656 478.566406 1191.867188 486.839844 Z M 1379.242188 347.996094 C 1379.242188 347.980469 1379.230469 347.980469 1379.214844 347.980469 C 1379.230469 347.980469 1379.230469 347.980469 1379.242188 347.996094 Z M 1054.371094 741.875 C 1054.816406 737.597656 1055.378906 733.335938 1056.117188 729.085938 C 1056.621094 726.421875 1057.347656 723.789062 1057.863281 721.125 C 1057.96875 720.457031 1058.175781 719.820312 1058.21875 719.15625 C 1058.25 717.75 1057.863281 716.359375 1057.316406 715.070312 C 1055.273438 710.925781 1054.179688 706.101562 1055.289062 701.539062 C 1056.871094 705.375 1058.175781 709.339844 1059.980469 713.085938 C 1061.179688 715.441406 1062.261719 717.839844 1063.296875 720.28125 C 1064.007812 721.921875 1064.570312 723.609375 1064.851562 725.386719 C 1064.851562 725.371094 1064.851562 725.371094 1064.851562 725.371094 C 1065.414062 729.367188 1065.53125 733.4375 1065.074219 737.449219 C 1062.480469 738.414062 1060.144531 739.359375 1058.085938 740.25 C 1056.871094 740.78125 1055.613281 741.359375 1054.371094 741.949219 C 1054.371094 741.921875 1054.371094 741.890625 1054.371094 741.863281 C 1054.371094 741.863281 1054.371094 741.875 1054.371094 741.875 Z M 1318.480469 671.847656 C 1318.570312 671.730469 1319.042969 671.332031 1319.03125 671.167969 C 1319.175781 672.929688 1319.414062 674.691406 1319.753906 676.421875 C 1319.800781 676.660156 1319.859375 676.925781 1319.902344 677.175781 C 1318.453125 676.554688 1317 675.917969 1315.550781 675.296875 C 1316.558594 674.171875 1317.535156 673.03125 1318.480469 671.847656 Z M 1330.78125 655.597656 C 1331.375 654.21875 1332.113281 652.886719 1332.527344 651.4375 C 1333.089844 654.589844 1333.371094 657.785156 1333.578125 660.96875 C 1333.667969 662.0625 1333.714844 663.160156 1333.757812 664.253906 C 1333.921875 668.117188 1333.875 671.980469 1333.640625 675.828125 C 1333.535156 677.472656 1333.417969 679.128906 1333.328125 680.773438 C 1331.609375 680.9375 1330.367188 680.003906 1329.894531 678.359375 C 1329.066406 676.363281 1328.84375 674.1875 1328.679688 672.039062 C 1328.488281 669.835938 1328.371094 667.613281 1328.296875 665.410156 C 1328.25 663.988281 1328.191406 662.566406 1328.101562 661.148438 C 1329.066406 659.339844 1329.996094 657.492188 1330.78125 655.597656 Z M -131.425781 802.34375 C -107.300781 802.328125 -79.605469 798.167969 -64.878906 798.847656 C -48.285156 799.589844 -31.796875 797.324219 -24.972656 811.503906 C -19.628906 822.578125 -28.09375 841.109375 -24.527344 853.15625 C -12.390625 894.085938 43.324219 888.089844 75.828125 890.859375 C 124.882812 895.03125 171.09375 896.304688 218.210938 913.726562 C 263.382812 930.410156 313.222656 960.324219 361.757812 963.785156 C 414.410156 967.546875 471.78125 954.726562 524.714844 952.402344 C 581.316406 949.902344 636.480469 953.46875 691.679688 940.414062 C 763.246094 923.496094 834.472656 893.359375 908.839844 893.523438 C 976.394531 893.671875 1043.742188 896.320312 1110.308594 904.742188 C 1171.734375 912.527344 1232.542969 906.84375 1293.792969 900.820312 C 1314.542969 898.777344 1335.859375 903.277344 1356.003906 898.539062 C 1380.074219 892.855469 1404.660156 876.605469 1423.589844 861.253906 C 1450.722656 839.273438 1463.050781 809.105469 1486.335938 785.214844 C 1502.78125 768.328125 1531.6875 771.082031 1521.046875 744.066406 C 1513.203125 724.160156 1483.835938 712.257812 1464.25 711.117188 C 1441.8125 709.800781 1434.558594 711.117188 1428.355469 711.117188 C 1422.140625 711.117188 1402.203125 701.867188 1396.933594 693.949219 C 1391.648438 686.027344 1378.429688 692.628906 1365.242188 692.628906 C 1352.1875 692.628906 1351.609375 680.816406 1344.960938 682.460938 C 1344.636719 682.179688 1344.265625 681.929688 1343.925781 681.660156 C 1343.273438 681.039062 1342.492188 680.609375 1341.914062 679.914062 C 1341.75 679.515625 1341.707031 678.316406 1341.691406 678.152344 C 1341.542969 674.644531 1341.882812 671.121094 1341.867188 667.613281 C 1342.121094 661.382812 1342.417969 655.105469 1343.542969 649.007812 C 1343.898438 647.378906 1344.371094 645.796875 1344.652344 644.167969 C 1345.007812 641.695312 1345.167969 639.210938 1345.71875 636.769531 C 1347.078125 630.726562 1349.253906 624.882812 1350.527344 618.8125 C 1351.476562 614.089844 1351.3125 609.175781 1350.660156 604.410156 C 1349.832031 599.984375 1348.1875 595.75 1347.109375 591.386719 C 1346.695312 588.855469 1347.003906 586.175781 1347.761719 583.746094 C 1348.234375 582.445312 1348.871094 581.1875 1349.789062 580.148438 C 1349.964844 579.941406 1350.144531 579.734375 1350.335938 579.542969 C 1351.445312 580.0625 1352.734375 580.371094 1353.949219 580.089844 C 1355.855469 579.542969 1357.589844 578.316406 1358.433594 576.480469 C 1359.4375 574.777344 1359.054688 572.703125 1359.171875 570.839844 C 1359.453125 569.625 1360.371094 568.664062 1360.652344 567.433594 C 1361.039062 566.222656 1361.125 564.933594 1361.066406 563.660156 C 1361.007812 562.640625 1360.933594 561.617188 1360.488281 560.6875 C 1361.050781 559.8125 1361.613281 558.730469 1361.347656 557.667969 C 1361.15625 556.925781 1360.445312 556.40625 1359.71875 556.214844 C 1358.996094 556.082031 1358.300781 556.363281 1357.601562 556.527344 C 1357.261719 556.246094 1356.894531 556.007812 1356.523438 555.769531 C 1354.910156 554.484375 1352.792969 554.691406 1350.914062 554.203125 C 1347.050781 552.53125 1343.734375 553.003906 1339.722656 553.699219 C 1338.6875 553.300781 1337.621094 552.945312 1336.539062 552.722656 C 1333.964844 552.027344 1331.417969 553.742188 1331.417969 556.46875 C 1331.390625 557.148438 1331.625 557.8125 1331.980469 558.390625 C 1332.765625 559.679688 1333.699219 560.90625 1334.808594 561.929688 C 1334.394531 562.964844 1333.933594 563.988281 1333.34375 564.917969 C 1332.691406 565.792969 1331.90625 566.546875 1331.167969 567.332031 C 1328.886719 569.820312 1326.222656 571.90625 1323.988281 574.421875 C 1322.332031 576.273438 1321.21875 578.507812 1320.082031 580.683594 C 1319.296875 582.117188 1318.40625 583.511719 1317.699219 584.945312 C 1316.054688 588.277344 1314.945312 591.828125 1313.878906 595.351562 C 1312.796875 598.402344 1310.519531 600.84375 1308.371094 603.210938 C 1305.632812 606.097656 1302.777344 608.894531 1300.394531 612.09375 C 1296.414062 617.523438 1293.140625 623.476562 1290.726562 629.765625 C 1289.542969 632.832031 1288.894531 636.085938 1287.960938 639.226562 C 1285.828125 641.222656 1283.84375 643.398438 1282.128906 645.78125 C 1281.152344 647.113281 1280.234375 648.550781 1279.761719 650.148438 C 1278.679688 653.554688 1278.414062 657.121094 1278.042969 660.65625 C 1277.851562 662.480469 1277.730469 664.300781 1277.71875 666.132812 C 1277.613281 668.191406 1277.449219 670.265625 1277.644531 672.335938 C 1271.117188 672.839844 1264.410156 672.027344 1258.058594 673.980469 C 1252.375 675.546875 1245.550781 680.417969 1243.777344 686.25 C 1243.496094 686.992188 1243.363281 687.671875 1243.347656 688.308594 C 1231.03125 693.503906 1217.042969 695.828125 1211.417969 695.265625 C 1204.816406 694.613281 1190.949219 699.882812 1175.761719 707.089844 C 1160.574219 714.300781 1146.054688 721.671875 1120.3125 724.320312 C 1113.164062 725.046875 1106.175781 726.15625 1099.53125 727.503906 C 1098.804688 719.230469 1097.164062 711.101562 1095.550781 702.960938 C 1096.347656 702.886719 1097.148438 702.800781 1097.917969 702.710938 C 1099.769531 703.703125 1101.886719 704.027344 1103.941406 704.175781 C 1106.339844 704.382812 1108.753906 703.644531 1110.601562 702.089844 C 1111.507812 701.257812 1114.171875 698.625 1113.964844 697.441406 C 1113.207031 695.769531 1108.695312 694.449219 1106.917969 694.09375 C 1102.742188 693.265625 1099.101562 693.59375 1096.261719 697.070312 C 1095.636719 697.113281 1095.003906 697.144531 1094.367188 697.160156 C 1092.472656 687.492188 1091.125 677.753906 1089.527344 668.03125 C 1087.230469 653.125 1076.53125 641.476562 1071.394531 627.605469 C 1068.03125 618.589844 1068.773438 608.777344 1068.136719 599.394531 C 1067.707031 592.96875 1066.417969 586.558594 1063.828125 580.652344 C 1060.648438 573.429688 1055.984375 567.167969 1053.527344 559.589844 C 1051.691406 553.875 1050.539062 547.957031 1050.109375 541.976562 C 1049.664062 535.757812 1050.566406 530.269531 1052.003906 524.242188 C 1062.644531 523.738281 1074.679688 525.664062 1084.183594 519.890625 C 1092.425781 514.042969 1087.335938 506.246094 1081.132812 501.300781 C 1078.097656 499.359375 1074.53125 498.382812 1071.097656 497.347656 C 1077.757812 491.753906 1084.90625 486.632812 1090.859375 480.238281 C 1094.351562 476.152344 1097.371094 471.621094 1100.019531 466.960938 C 1137.601562 432.472656 1155.289062 431.820312 1155.214844 431.835938 C 1155.335938 431.804688 1172.492188 431.449219 1180.882812 432.324219 C 1181.550781 433.195312 1182.304688 433.980469 1183.101562 434.722656 C 1182.734375 443.039062 1180.542969 451.210938 1180.1875 459.527344 C 1180.039062 462.695312 1180.15625 465.910156 1179.226562 468.941406 C 1179.105469 469.296875 1178.78125 469.550781 1178.425781 469.535156 C 1178.011719 469.519531 1177.90625 469.179688 1177.789062 468.882812 C 1177.226562 467.597656 1178.011719 467.183594 1178.128906 466.058594 C 1178.203125 465.273438 1177.96875 463.820312 1177.597656 463.097656 C 1177.359375 462.621094 1176.769531 462.429688 1176.28125 462.636719 L 1175.878906 462.816406 C 1175.644531 462 1174.859375 461.4375 1174.03125 461.261719 C 1173.1875 461.082031 1172.328125 461.230469 1171.5 461.453125 C 1170.046875 461.824219 1168.65625 462.386719 1167.367188 463.109375 C 1166.660156 463.511719 1165.976562 463.96875 1165.503906 464.621094 C 1165.03125 465.273438 1164.792969 466.144531 1165.089844 466.886719 C 1164.230469 466.886719 1163.535156 467.996094 1163.875 468.796875 C 1164.898438 471.207031 1165.84375 470.628906 1166.449219 471.710938 C 1167.101562 472.851562 1167.398438 473.589844 1166.792969 474.9375 C 1162.839844 479.496094 1158.546875 483.773438 1154.089844 487.742188 C 1153.234375 488.007812 1152.433594 487.207031 1151.871094 486.511719 C 1149.945312 484.1875 1146.824219 481.613281 1144.515625 479.660156 C 1143.183594 478.535156 1142.042969 477.882812 1141.316406 477.097656 C 1139.394531 475.054688 1138.699219 474.359375 1137.230469 471.859375 C 1137.070312 471.59375 1136.875 471.328125 1136.625 471.121094 C 1135.351562 469.996094 1134.167969 470.882812 1133.367188 471.785156 C 1132.671875 472.585938 1132.125 473.648438 1132.585938 474.6875 C 1133.085938 475.828125 1134.417969 475.914062 1135.324219 476.609375 C 1136.300781 477.378906 1137.988281 479.378906 1138.742188 480.339844 C 1141.019531 483.257812 1142.425781 484.679688 1144.882812 487.445312 C 1146.21875 488.957031 1148.007812 490.496094 1149.429688 491.929688 C 1150.671875 493.1875 1152.210938 494.566406 1154.003906 494.933594 C 1154.980469 495.144531 1155.703125 494.800781 1156.578125 494.445312 C 1157.703125 493.988281 1158.769531 493.394531 1159.789062 492.757812 C 1162.425781 491.085938 1167.722656 486.277344 1168.066406 485.890625 C 1168.804688 485.019531 1170.167969 485.136719 1170.757812 486.113281 C 1172.933594 489.738281 1174.398438 494.226562 1177.035156 497.675781 C 1177.597656 498.414062 1177.773438 499.359375 1177.492188 500.25 C 1176.546875 503.253906 1175.925781 506.378906 1175.65625 509.515625 C 1175.4375 512.015625 1175.511719 514.742188 1177.035156 516.722656 C 1178.070312 518.070312 1179.640625 518.886719 1181.148438 519.667969 C 1183.753906 521 1186.359375 522.332031 1188.964844 523.667969 C 1189.644531 524.019531 1190.339844 524.375 1190.816406 524.984375 C 1192.074219 526.582031 1191.15625 528.964844 1191.703125 530.917969 C 1191.746094 531.082031 1191.820312 531.246094 1191.953125 531.347656 C 1192.472656 531.851562 1193.226562 531.246094 1193.582031 530.667969 C 1195.183594 528.136719 1195.714844 524.703125 1194.945312 523.3125 C 1194.128906 521.800781 1191.894531 519.535156 1190.546875 518.46875 C 1187.929688 516.429688 1185.175781 514.398438 1183.382812 511.601562 C 1183.207031 511.335938 1183.042969 511.023438 1183.058594 510.714844 C 1183.074219 510.34375 1183.296875 510.046875 1183.519531 509.765625 C 1185.472656 507.25 1187.542969 504.824219 1189.644531 502.367188 C 1189.734375 502.246094 1189.914062 502.246094 1190 502.367188 C 1192.222656 505.121094 1194.457031 507.871094 1196.675781 510.625 C 1197.773438 511.972656 1198.882812 513.347656 1199.488281 514.976562 C 1199.949219 516.21875 1200.097656 517.539062 1200.453125 518.8125 C 1201.160156 521.328125 1202.671875 523.636719 1202.804688 526.242188 C 1202.835938 526.847656 1202.789062 527.46875 1202.996094 528.046875 C 1203.261719 528.726562 1203.871094 529.214844 1204.433594 529.675781 L 1209.585938 533.777344 C 1209.878906 534.011719 1210.292969 534.085938 1210.648438 533.921875 C 1211.390625 533.597656 1211.136719 532.652344 1210.8125 532.015625 C 1210.21875 530.800781 1209.585938 529.601562 1208.902344 528.433594 C 1208.339844 527.484375 1207.75 526.523438 1207.421875 525.457031 C 1207.097656 524.375 1207.054688 523.238281 1206.917969 522.097656 C 1206.710938 520.039062 1206.238281 518.011719 1205.765625 516 C 1204.816406 511.867188 1203.855469 507.738281 1202.390625 503.773438 C 1200.925781 499.804688 1198.941406 495.972656 1196.171875 492.523438 C 1195.832031 487.429688 1195.492188 482.339844 1195.152344 477.246094 C 1194.886719 473.441406 1194.632812 469.640625 1194.574219 465.820312 C 1194.484375 461.363281 1194.679688 456.910156 1195.109375 452.46875 C 1195.390625 449.433594 1195.804688 446.414062 1196.292969 443.410156 C 1196.351562 443.441406 1196.410156 443.453125 1196.46875 443.484375 C 1200.585938 445.261719 1204.789062 443.734375 1208.726562 442.300781 C 1212.457031 441.085938 1216.171875 439.738281 1219.886719 438.480469 C 1230.128906 434.617188 1231.285156 438.199219 1240.578125 440.628906 C 1252.910156 442.996094 1260.976562 429.925781 1268.023438 421.886719 C 1267.992188 421.917969 1267.976562 421.945312 1267.949219 421.976562 C 1268.96875 420.71875 1270.003906 419.460938 1271.027344 418.21875 C 1282.351562 417.003906 1293.289062 420.777344 1304.421875 421.992188 C 1306.949219 422.167969 1320.242188 423.042969 1324.359375 422.703125 C 1338.285156 421.605469 1344.800781 418.660156 1351.328125 416.382812 C 1352.363281 416.027344 1356.285156 414.515625 1357.070312 414.191406 C 1358.847656 416.972656 1361.273438 419.28125 1363.6875 421.503906 C 1368.039062 425.589844 1375.839844 423.058594 1381.136719 422.40625 C 1385.5625 421.769531 1390.09375 422.050781 1394.3125 423.558594 C 1401.996094 426.328125 1410.03125 428.222656 1418.203125 428.503906 C 1424.65625 428.726562 1429.777344 425.308594 1431.996094 419.222656 C 1433.464844 415.199219 1434.027344 410.757812 1433.433594 406.507812 C 1432.855469 402.4375 1431.183594 398.425781 1429.050781 394.933594 C 1427.601562 392.566406 1425.855469 390.375 1423.886719 388.421875 C 1423.902344 388.449219 1423.929688 388.480469 1423.960938 388.507812 C 1420.140625 384.792969 1415.628906 381.863281 1411.824219 378.132812 C 1408.464844 374.804688 1406.332031 370.511719 1403.429688 366.839844 C 1401.371094 363.921875 1398.828125 361.453125 1396.148438 359.097656 C 1391.1875 354.507812 1385.550781 350.5 1379.378906 347.730469 C 1371.933594 345.480469 1365.0625 346.101562 1357.25 346.042969 C 1353.84375 346.027344 1349.640625 345.878906 1346.648438 344.058594 C 1343.496094 342.148438 1341.46875 338.628906 1338.554688 336.40625 C 1335.148438 333.816406 1332.171875 330.738281 1328 329.390625 C 1322.980469 327.777344 1317.5625 328.441406 1312.488281 327.316406 C 1301.726562 324.625 1290.863281 321.738281 1279.699219 321.414062 C 1272.449219 321.027344 1265.285156 322.980469 1258.046875 322.449219 C 1253.160156 322.195312 1248.957031 319.636719 1244.488281 317.949219 C 1240.210938 316.558594 1235.710938 316.660156 1231.34375 316.410156 C 1224.339844 316.15625 1219.425781 310.3125 1212.972656 308.328125 C 1209.730469 307.097656 1206.445312 305.960938 1203.128906 304.9375 C 1200.242188 304.066406 1197.179688 303.117188 1195.167969 300.824219 C 1193.523438 299.003906 1194.308594 296.398438 1194.101562 294.175781 C 1194.058594 290.015625 1191.464844 289.675781 1188.210938 288.597656 C 1186.359375 287.855469 1184.554688 286.96875 1182.957031 285.886719 C 1182.910156 285.859375 1182.867188 285.828125 1182.851562 285.8125 C 1181.015625 284.40625 1179.3125 282.777344 1177.183594 281.816406 C 1175.464844 281.34375 1173.660156 281.09375 1171.882812 281.09375 C 1167.648438 281.179688 1163.402344 281.375 1159.226562 282.1875 C 1154.949219 283 1150.730469 284.289062 1146.363281 284.363281 C 1146.410156 284.363281 1146.453125 284.363281 1146.511719 284.363281 C 1144.664062 284.421875 1142.796875 284.246094 1141.050781 283.578125 C 1139.585938 283.015625 1138.222656 282.1875 1136.714844 281.699219 C 1129.003906 279.269531 1125.507812 281.433594 1118.9375 285.089844 C 1116.539062 286.539062 1113.933594 287.425781 1111.195312 288.003906 C 1108.144531 288.863281 1105.320312 290.34375 1102.667969 292.074219 C 1098.6875 294.429688 1095.609375 297.953125 1092.144531 300.957031 C 1090 302.96875 1087.230469 302.953125 1084.550781 302.199219 C 1080.097656 301.191406 1075.804688 299.59375 1072.148438 296.796875 C 1069.632812 294.945312 1067.5 292.636719 1065.058594 290.699219 C 1063.042969 289.113281 1060.335938 288.523438 1057.761719 288.152344 C 1046.464844 286.523438 1038.546875 292.726562 1029.621094 298.378906 C 1025.625 300.984375 1021.199219 302.761719 1016.492188 303.382812 C 1013.382812 303.886719 1010.203125 304.210938 1007.078125 303.976562 C 1002.976562 303.574219 998.847656 302.703125 995.191406 300.75 C 993.34375 299.816406 991.847656 298.378906 990.054688 297.359375 C 984.640625 295.167969 978.023438 296.632812 973.523438 300.214844 C 968.785156 303.886719 968.832031 309.140625 969.496094 314.53125 C 969.675781 317.195312 967.925781 319.429688 966.59375 321.5 C 966.566406 321.546875 966.535156 321.589844 966.550781 321.574219 C 964.449219 323.945312 961.472656 325.46875 958.484375 326.339844 C 956.175781 326.859375 954.074219 328.117188 952.488281 329.878906 C 950.773438 331.90625 949.765625 334.496094 947.765625 336.289062 C 945.546875 337.738281 943.179688 339.070312 940.664062 339.855469 C 937.953125 340.890625 935.113281 340.375 932.328125 339.988281 C 919.953125 339.070312 910.878906 350.394531 906.839844 360.933594 C 904.398438 368.644531 905.183594 376.917969 906.484375 384.78125 C 906.957031 388.480469 907.832031 392.210938 907.566406 395.96875 C 906.601562 401.03125 911.175781 405.148438 915.648438 406.507812 C 921.714844 408.460938 928.183594 408.269531 934.488281 408.523438 C 936.546875 408.683594 937.863281 410.535156 939.789062 411.039062 C 942.304688 411.777344 945 411.394531 947.441406 410.519531 C 950.710938 409.351562 953.851562 407.78125 957.152344 406.6875 C 960.480469 405.722656 963.988281 405.574219 967.425781 405.382812 C 971.714844 405.234375 976.171875 405.5625 980.332031 404.289062 C 982.476562 403.503906 983.617188 401.460938 984.492188 399.464844 C 997.265625 402.140625 1007.996094 410.046875 1019.691406 415.433594 C 1025.847656 418.097656 1032.242188 420.273438 1038.785156 421.785156 C 1048.199219 423.886719 1057.894531 424.136719 1067.410156 425.617188 C 1070.34375 426.003906 1073.289062 426.34375 1076.203125 426.773438 C 1078.335938 427.792969 1081.28125 432.988281 1083.011719 435.847656 C 1084.035156 437.609375 1084.921875 439.472656 1086.386719 440.921875 C 1084.953125 444.964844 1083.117188 448.84375 1081.503906 452.707031 C 1080.925781 454.066406 1080.347656 455.429688 1079.769531 456.777344 C 1079.800781 456.730469 1079.816406 456.6875 1079.832031 456.628906 C 1078.171875 460.519531 1076.558594 464.445312 1074.425781 468.085938 C 1068.535156 477.097656 1061.578125 485.460938 1054.355469 493.441406 C 1051.128906 492.257812 1048.214844 490.363281 1045 489.132812 C 1038.945312 486.839844 1032.332031 485.949219 1025.890625 486.144531 C 1019.054688 486.335938 1012.378906 486.914062 1005.554688 485.847656 C 999.855469 484.957031 994.984375 481.6875 989.640625 479.75 C 986.046875 478.328125 981.855469 478.179688 978.613281 475.988281 C 984.519531 474.300781 1000.078125 476.582031 998.761719 467.121094 C 999.25 459.945312 1010.988281 460.519531 1013.753906 455.03125 C 1015.546875 451.167969 1008.589844 448.871094 1005.851562 448.042969 C 1003.15625 447.230469 1000.402344 447.035156 997.648438 446.621094 C 994.96875 446.207031 992.292969 445.808594 989.613281 445.378906 C 987.109375 444.980469 984.667969 443.914062 982.152344 443.410156 C 978.273438 442.65625 974.46875 442.65625 970.546875 442.804688 C 962.125 443.144531 953.613281 443.988281 945.265625 442.449219 C 923.179688 438.109375 907.726562 427.957031 883.824219 434.097656 C 870.855469 437.800781 859.238281 445.097656 846.449219 449.199219 C 846.492188 449.199219 846.535156 449.183594 846.566406 449.167969 C 844.566406 449.671875 842.511719 449.953125 840.4375 449.863281 C 834.679688 449.449219 828.996094 447.6875 823.179688 448.324219 C 819.921875 448.589844 816.859375 449.820312 813.707031 450.542969 C 813.734375 450.542969 813.78125 450.53125 813.808594 450.53125 C 800.589844 454.246094 792.40625 446.03125 780.046875 445.199219 C 771.492188 444.890625 765.246094 452.113281 757.074219 453.3125 C 753.730469 453.769531 750.355469 453.550781 747.007812 453.417969 C 731.289062 453.046875 724.421875 458.167969 711.585938 465.480469 C 708.65625 467.0625 705.488281 467.980469 702.261719 468.722656 C 702.308594 468.722656 702.335938 468.707031 702.378906 468.691406 C 682.679688 472.464844 660.492188 476.300781 647.125 492.789062 C 644.195312 496.519531 641.664062 503.476562 646.429688 506.761719 C 647.671875 507.441406 649.125 507.578125 650.5 507.441406 C 653.964844 507.160156 660.859375 506.347656 660.847656 506.347656 C 664.265625 506.097656 667.582031 505.875 671.015625 506.15625 C 674.894531 506.464844 678.667969 507.457031 682.53125 507.929688 C 686.542969 508.433594 690.421875 508.226562 694.402344 507.589844 C 698.042969 507 701.566406 505.609375 705.28125 505.667969 C 712.84375 505.816406 719.742188 510.609375 727.410156 509.117188 C 730.164062 511.441406 733.242188 513.363281 736.484375 514.933594 C 745.824219 519.90625 755.253906 524.820312 765.289062 528.300781 C 770.171875 530.074219 775.101562 531.746094 780.0625 533.300781 C 786.929688 535.9375 793.78125 538.644531 800.457031 541.722656 C 810.40625 546.296875 818.855469 552.441406 825.976562 560.804688 C 829.8125 565.304688 833.363281 570.070312 836.472656 575.101562 C 838.351562 578.167969 840.128906 581.335938 841.328125 584.738281 C 842.570312 588.261719 843.117188 592.09375 843.488281 595.8125 C 844.300781 603.714844 844.523438 611.679688 844.421875 619.582031 C 842.71875 654.191406 840.4375 688.824219 842.289062 723.476562 C 834.605469 724.394531 826.644531 726.113281 818.101562 728.9375 C 794.035156 736.902344 764.460938 730.257812 734.234375 735.199219 C 732.074219 735.554688 729.765625 736.015625 727.335938 736.5625 C 725.738281 729.191406 724.15625 721.820312 723.3125 714.300781 C 722.984375 711.503906 723.089844 708.691406 723.101562 705.878906 C 723.042969 702.726562 723.132812 699.574219 723.222656 696.417969 C 723.28125 694.15625 723.472656 691.859375 723.472656 689.609375 C 723.652344 686.785156 723.976562 683.972656 724.214844 681.128906 C 726.332031 686.382812 726.109375 692.171875 725.472656 697.707031 C 725.632812 701.023438 726.820312 704.324219 728.652344 707.089844 C 729.097656 707.714844 729.570312 708.351562 730.132812 708.882812 C 730.253906 708.988281 730.371094 709.089844 730.535156 709.105469 C 731.820312 708.707031 731.4375 704.769531 731.464844 703.40625 C 731.421875 700.859375 731.320312 698.285156 730.546875 695.84375 C 729.558594 692.957031 728.402344 690.039062 728.285156 686.945312 C 728.121094 683.734375 727.882812 680.523438 727.589844 677.308594 C 727.457031 675.429688 727.484375 673.519531 727.335938 671.640625 C 727.070312 668.84375 726.476562 666.074219 725.929688 663.324219 C 723.414062 650.992188 717.507812 637.90625 708.183594 629.261719 C 706.332031 627.605469 704.554688 625.84375 702.5 624.4375 C 699.332031 622.378906 695.957031 620.648438 692.269531 619.804688 C 687.710938 618.503906 682.8125 617.984375 678.136719 618.769531 C 668.648438 620.144531 659.027344 620.398438 649.523438 621.535156 C 646.875 621.863281 644.210938 622.15625 641.542969 622.203125 C 636.4375 622.039062 631.273438 621.449219 626.3125 620.21875 C 620.6875 619.136719 615.285156 616.902344 609.601562 616.074219 C 607.144531 615.71875 604.644531 615.777344 602.171875 615.617188 C 600.527344 615.496094 598.886719 615.484375 597.257812 615.554688 C 596.398438 614.609375 595.6875 613.484375 594.636719 612.714844 C 592.933594 611.722656 590.820312 611.839844 588.921875 612.109375 C 586.480469 612.316406 584.054688 612.640625 581.6875 613.320312 C 579.230469 613.957031 577.320312 615.734375 575.15625 616.949219 C 574.046875 617.597656 572.835938 618.058594 571.738281 618.738281 C 570.449219 619.507812 569.398438 620.605469 568.289062 621.59375 C 565.625 624.054688 562.027344 625.015625 558.742188 626.363281 C 558.699219 626.316406 558.625 626.300781 558.550781 626.316406 C 555.945312 627.101562 553.027344 627.722656 551 629.664062 C 549.179688 631.289062 548.855469 633.925781 548.335938 636.175781 C 547.96875 638.234375 546.78125 640.023438 546.207031 642.007812 C 545.40625 645.117188 545.082031 648.34375 544.132812 651.421875 C 543.007812 654.8125 542.105469 658.246094 541.246094 661.722656 C 540.566406 664.238281 539.664062 666.710938 539.25 669.289062 C 538.257812 675.339844 537.722656 681.453125 537.175781 687.554688 C 535.695312 688.988281 533.832031 690.011719 531.878906 690.648438 C 530.457031 691.210938 528.828125 691.328125 527.464844 692.007812 C 525.910156 693.59375 529.078125 693.933594 530.117188 693.859375 C 528.738281 694.671875 527.125 695.042969 525.839844 695.976562 C 525.082031 696.761719 526.238281 697.324219 526.949219 697.25 C 528.976562 697.394531 530.898438 696.566406 532.808594 695.992188 C 534.128906 695.5625 535.414062 695.042969 536.644531 694.421875 C 535.828125 703.199219 536.449219 712.050781 537.292969 720.796875 C 537.695312 726.273438 538.921875 731.617188 539.679688 737.035156 C 540.09375 739.804688 540.046875 742.660156 540.328125 745.382812 C 540.402344 749.308594 540.121094 753.273438 538.996094 757.035156 C 536.511719 757.402344 533.832031 757.804688 530.960938 758.246094 L 473.453125 758.246094 C 473.394531 758.085938 473.335938 757.921875 473.292969 757.773438 C 472.789062 756.101562 471.53125 754.902344 470.464844 753.597656 C 469.769531 752.683594 469.5625 751.511719 469.265625 750.417969 C 468.304688 746.714844 467.917969 742.898438 467.53125 739.09375 C 467.191406 736.25 466.867188 733.394531 466.75 730.539062 C 467.164062 727.28125 466.660156 723.9375 467.074219 720.679688 C 467.5625 715.796875 469.042969 711.101562 470.480469 706.5 C 472.417969 700.800781 471.5 694.703125 472.507812 688.839844 C 473.925781 680.757812 477.167969 672.796875 476.089844 664.449219 C 476.164062 662.921875 477.273438 661.605469 478.058594 660.347656 C 479.671875 658.054688 481.402344 655.804688 482.484375 653.199219 C 486.167969 644.300781 482.496094 634.8125 482.082031 625.667969 C 484.257812 622.203125 486.539062 618.769531 488.449219 615.140625 C 489.601562 612.878906 490.785156 610.640625 491.957031 608.390625 C 494.324219 603.789062 496.664062 599.15625 498.113281 594.167969 C 499.890625 588.660156 500.585938 582.875 502.007812 577.277344 C 502.792969 574.035156 503.265625 570.75 504.09375 567.539062 C 504.96875 564.328125 505.945312 561.144531 506.875 557.949219 C 507.4375 556.199219 508.105469 554.484375 508.816406 552.796875 C 509.46875 553.816406 509.527344 555.121094 510.03125 556.214844 C 510.429688 557.191406 511.035156 558.09375 511.789062 558.820312 C 513.050781 559.855469 514.882812 560.195312 516.394531 559.574219 C 518.40625 558.449219 520.09375 556.792969 521.042969 554.660156 C 522.046875 551.65625 521.796875 548.355469 522.019531 545.234375 C 522.167969 543.265625 522.019531 541.148438 522.90625 539.328125 C 523.972656 537.164062 526.074219 535.359375 525.898438 532.769531 C 525.910156 532.429688 525.925781 532.074219 525.925781 531.71875 C 528.976562 530.636719 532.011719 529.082031 533.964844 526.417969 C 534.824219 525.25 536.230469 523.828125 535.445312 522.304688 C 534.824219 521.5625 533.773438 521.742188 532.914062 521.59375 C 529.597656 520.601562 526.222656 522.261719 523.796875 524.480469 C 523.675781 521.578125 522.816406 518.707031 523.1875 515.792969 C 523.542969 514.472656 524.566406 513.246094 524.0625 511.824219 C 523.527344 509.871094 521.175781 509.441406 519.429688 509.308594 C 518.554688 509.234375 517.769531 509.929688 517.339844 510.640625 C 517.148438 510.980469 517.164062 511.394531 517.132812 511.765625 C 516.925781 512.445312 517.207031 513.113281 517.609375 513.660156 C 518.257812 514.949219 517.488281 516.574219 516.410156 517.464844 C 515.757812 517.894531 514.898438 518.042969 514.144531 517.863281 C 513.714844 517.730469 513.332031 517.464844 513.019531 517.136719 C 512.5625 516.5 512.398438 515.6875 512.292969 514.917969 C 511.953125 512.800781 515.105469 511.75 512.988281 509.632812 C 511.257812 507.917969 507.914062 507.738281 506.300781 509.707031 C 505.5 510.832031 506.238281 512.179688 506.328125 513.410156 C 506.3125 515.378906 506.449219 517.375 506.179688 519.34375 C 505.972656 520.675781 505.46875 521.917969 505.261719 523.25 C 505.085938 522.941406 504.90625 522.644531 504.699219 522.347656 C 502.820312 519.996094 497.609375 516.160156 494.515625 516.636719 C 493.453125 516.902344 493.777344 518.144531 493.953125 518.929688 C 494.324219 520.558594 494.769531 522.171875 495.566406 523.652344 C 496.308594 525.027344 497.328125 526.242188 498.394531 527.382812 C 499.195312 528.34375 500.378906 528.9375 501.117188 529.925781 C 501.636719 530.550781 501.800781 531.363281 502.035156 532.117188 C 500.363281 533.953125 498.722656 535.804688 497.253906 537.800781 C 495.492188 540.464844 493.953125 543.292969 492.621094 546.195312 C 492.5625 546.328125 492.488281 546.460938 492.429688 546.609375 C 490.933594 549.851562 489.171875 552.988281 487.738281 556.273438 C 484.140625 563.824219 480.515625 571.402344 475.734375 578.285156 C 473.867188 580.726562 471.8125 583.050781 469.621094 585.210938 C 467.828125 587.003906 465.726562 588.453125 463.789062 590.097656 C 462.839844 591 461.539062 591.398438 460.472656 592.140625 C 458.828125 593.207031 457.097656 594.152344 455.453125 595.234375 C 452.730469 597.023438 450.390625 599.347656 448.378906 601.835938 C 446.675781 603.894531 445.152344 606.128906 443.140625 607.917969 C 441.199219 609.652344 439.097656 611.21875 436.90625 612.640625 C 431.757812 615.601562 425.984375 617.273438 420.285156 618.605469 C 418.257812 619.066406 416.230469 619.523438 414.1875 619.894531 C 411.566406 620.335938 408.871094 620.589844 406.371094 621.523438 C 402.65625 623.089844 399.386719 625.695312 396.4375 628.433594 C 389.023438 635.507812 387.113281 646.121094 386.550781 655.878906 C 386.167969 659.726562 385.605469 663.558594 385.546875 667.421875 C 385.589844 670.324219 385.765625 673.253906 385.277344 676.125 C 384.703125 680.210938 382.125 683.617188 381.386719 687.597656 C 381.015625 689.402344 379.625 695.695312 381.519531 696.613281 C 382.183594 696.980469 382.835938 696.507812 383.371094 696.078125 C 384.714844 695.042969 385.914062 693.769531 386.757812 692.273438 C 388.816406 689.019531 389.734375 685.140625 389.644531 681.308594 C 389.171875 674.070312 388.699219 666.785156 389.957031 659.59375 C 390.917969 663.945312 391.953125 668.339844 394.292969 672.1875 C 395.300781 674.214844 396.839844 675.917969 397.859375 677.917969 C 398.15625 680.0625 398.542969 682.222656 398.585938 684.414062 C 398.75 688.382812 397.832031 692.273438 397 696.125 C 396.054688 699.882812 395.003906 703.894531 396.574219 707.640625 C 396.941406 708.585938 397.402344 709.488281 397.710938 710.453125 C 398.054688 711.738281 398.054688 713.101562 398.054688 714.433594 C 398.082031 719.15625 397.5625 723.847656 397.800781 728.570312 C 397.726562 733.261719 397.890625 737.9375 398.1875 742.632812 C 398.40625 745.695312 398.453125 748.820312 399.191406 751.808594 C 399.578125 753.496094 400.40625 755.035156 401.722656 756.175781 C 402.269531 756.765625 402.492188 757.492188 402.6875 758.246094 L 342.929688 758.246094 C 330.808594 754.398438 320.566406 752.046875 303.660156 752.046875 C 275.300781 752.046875 257.953125 750.933594 232.492188 748.226562 C 232.773438 747.871094 232.9375 747.414062 232.9375 746.9375 C 232.921875 745.371094 231.53125 744.332031 230.09375 744.066406 C 229.53125 743.964844 228.941406 743.949219 228.46875 743.652344 C 228.082031 743.429688 227.816406 743.046875 227.550781 742.675781 C 224.46875 738.265625 221.390625 733.855469 218.3125 729.441406 C 217.230469 727.933594 216.492188 726.75 216.121094 725.195312 C 215.753906 723.640625 215.707031 722.042969 215.691406 720.441406 C 215.664062 717.792969 215.738281 715.128906 216.179688 712.523438 C 216.253906 711.976562 216.667969 710.820312 217.292969 711.175781 C 217.929688 711.726562 218.726562 712.316406 219.644531 712.433594 C 220.519531 712.554688 221.289062 711.382812 222.144531 711.234375 C 227.429688 710.332031 224.027344 702.207031 224.945312 701.214844 C 225.210938 700.917969 225.609375 700.769531 225.949219 700.535156 C 226.925781 699.824219 227.148438 698.386719 226.792969 697.234375 C 226.425781 696.078125 225.609375 695.132812 224.796875 694.230469 C 222.738281 691.949219 220.546875 689.65625 217.75 688.398438 C 214.953125 687.125 211.371094 687.109375 209.0625 689.136719 C 208.144531 689.949219 207.433594 691.0625 206.292969 691.550781 C 205.242188 692.007812 204.027344 691.816406 202.902344 691.59375 C 191.566406 689.523438 176.054688 680.671875 165.261719 686.457031 C 164.136719 687.09375 162.894531 687.492188 161.605469 687.566406 C 159.445312 687.6875 153.421875 690.097656 150.3125 693.546875 C 146.125 698.195312 142.554688 703.4375 140.113281 709.207031 C 138.988281 711.917969 138.058594 714.714844 136.695312 717.289062 C 132.371094 725.625 123.445312 730.65625 114.226562 731.054688 C 109.621094 730.582031 104.78125 730.183594 99.703125 729.902344 C 99.023438 729.769531 96.566406 729.722656 96.0625 729.710938 C 96.804688 724.941406 97.691406 720.207031 98.667969 715.46875 C 98.652344 715.5 98.652344 715.542969 98.652344 715.574219 C 101.613281 701.957031 103.953125 688.234375 106.707031 674.570312 C 106.691406 674.632812 106.675781 674.691406 106.660156 674.75 C 109.089844 662.449219 112.9375 650.488281 115.765625 638.277344 C 120.441406 616.132812 125.667969 594.09375 133.039062 572.691406 C 136.992188 561.558594 142.972656 551.167969 149.203125 541.207031 C 154.5625 532.636719 162.761719 524.644531 171.984375 520.171875 C 182.90625 514.875 195.222656 513.675781 207.003906 511.441406 C 210.957031 510.683594 215.042969 509.707031 218.949219 508.480469 C 222.988281 507.222656 226.351562 504.941406 230.125 503.078125 C 250.003906 491.5 292.957031 488.097656 302.625 484.261719 C 307.242188 482.429688 311.699219 480.324219 315.917969 477.75 C 322.058594 474.167969 327.964844 470.203125 333.945312 466.367188 C 348.4375 474.773438 359.582031 459.515625 373.71875 464.546875 C 379.105469 466.414062 384.109375 469.328125 389.660156 470.734375 C 394.21875 471.949219 398.925781 472.273438 403.601562 472.453125 C 407.066406 472.644531 410.546875 472.097656 413.875 471.179688 C 420.609375 469.59375 426.441406 465.480469 433.238281 464.324219 C 436.125 463.601562 439.113281 463.496094 442.074219 463.390625 C 444.738281 463.320312 447.714844 463.554688 450.140625 462.269531 C 453.027344 460.757812 452.140625 457.902344 451.382812 455.472656 C 450.628906 453.460938 448.808594 452.128906 447.003906 451.078125 C 444.367188 449.40625 441.46875 448.28125 438.417969 447.585938 C 434.167969 446.546875 429.949219 445.40625 425.71875 444.285156 C 420.269531 442.816406 414.839844 441.191406 409.300781 440.078125 C 402.640625 438.820312 396.097656 438.066406 389.777344 435.433594 C 395.816406 431.421875 414.585938 418.734375 418.257812 417.003906 C 434.554688 409.632812 471.929688 406.050781 477.199219 403.164062 C 487.902344 408.105469 499.980469 406.210938 511.347656 406.9375 C 519.457031 407.335938 527.613281 409.585938 535.695312 407.824219 C 547.730469 405.074219 557.972656 396.652344 546.5 385.476562 C 544.785156 383.492188 543.496094 381.152344 541.644531 379.273438 C 529.167969 367.359375 510.636719 374.816406 495.433594 371.722656 C 490.519531 370.660156 485.679688 369.089844 481.164062 366.839844 C 481.226562 366.867188 481.285156 366.882812 481.34375 366.914062 C 468.6875 359.75 457.066406 350.601562 443.363281 345.375 C 436.953125 342.785156 430.054688 341.78125 423.214844 340.949219 C 415.742188 340.136719 408.175781 340.386719 400.703125 339.632812 C 395.996094 339.144531 391.554688 336.925781 388.625 333.164062 C 387.1875 331.316406 386.167969 329.152344 385.574219 326.890625 C 384.878906 324.152344 385.175781 321.53125 385.042969 318.746094 C 385.011719 318.066406 384.9375 317.386719 384.777344 316.734375 C 381.105469 306.3125 356.621094 306.683594 347.089844 304.492188 C 343.597656 304.003906 340.519531 302.214844 337.203125 301.207031 C 332.183594 299.992188 327.019531 299.359375 321.851562 299.492188 C 317.308594 299.609375 312.777344 300.246094 308.21875 300.570312 C 308.277344 300.570312 308.339844 300.570312 308.398438 300.570312 C 301.484375 301.089844 294.675781 299.652344 287.851562 298.824219 C 276.871094 297.417969 265.679688 297.730469 254.875 300.304688 C 247.546875 301.59375 240.410156 303.738281 233.070312 304.9375 C 229.371094 305.53125 224.648438 304.257812 220.949219 303.636719 C 217.039062 302.96875 213.101562 302.390625 209.210938 301.667969 C 206.265625 301.105469 202.769531 300.15625 199.691406 299.222656 C 196.6875 298.144531 193.429688 297.0625 191.179688 294.679688 C 195.28125 293.527344 212.066406 297.09375 218.84375 295.714844 C 222.21875 295.125 225.253906 293.453125 228.421875 292.191406 C 232.09375 290.773438 235.304688 288.433594 237.867188 285.457031 C 239.570312 283.710938 240.25 281.121094 240.292969 278.738281 C 239.984375 273.085938 232.433594 271.261719 228.066406 269.589844 C 224.128906 268.199219 220.058594 267.191406 216.0625 265.917969 C 209.832031 263.742188 203.96875 260.5625 197.605469 258.785156 C 190.011719 256.609375 182.046875 255.410156 174.144531 255.929688 C 160.4375 257.054688 149.335938 266.214844 136.472656 269.976562 C 132.3125 270.96875 128.019531 271.101562 123.773438 271.410156 C 101.628906 272.375 82.074219 283.519531 61.515625 290.460938 C 55.078125 292.683594 48.757812 295.285156 42.65625 298.320312 C 30.921875 303.976562 19.019531 312.753906 30.742188 325.527344 C 30.371094 325.070312 27.160156 325.351562 26.507812 325.320312 C 25.117188 325.277344 23.726562 325.230469 22.335938 325.214844 C 6.1875 324.667969 -8.230469 327.878906 -21.226562 337.855469 C -34.386719 347.539062 -46.390625 361.304688 -63.546875 362.960938 C -88.011719 365.566406 -119.554688 356.953125 -136.105469 380.636719 C -142.871094 390.019531 -127.519531 391.351562 -121.378906 391.351562 C -113.578125 391.277344 -86.414062 389.753906 -80.523438 390.109375 C -72.605469 402.484375 -66.328125 416.394531 -53.953125 425.085938 C -43.621094 432.648438 -11.871094 440.539062 -5.390625 445.46875 C -5.34375 445.496094 13.039062 459.808594 22.351562 466.367188 C 31.140625 472.804688 41.460938 478.015625 52.574219 477.972656 C 61.25 478.285156 70.011719 476.9375 78.625 478.460938 C 80.683594 478.875 82.699219 479.511719 84.636719 480.3125 C 83.082031 492.050781 80.625 503.832031 81.378906 515.71875 C 82.933594 532.664062 89.433594 548.753906 94.921875 564.710938 C 96.683594 569.863281 98.402344 575.027344 99.527344 580.34375 C 100.890625 587.90625 101.332031 595.664062 100.949219 603.316406 C 100.429688 613.351562 97.914062 623.105469 94.703125 632.59375 C 91.3125 643.207031 88.027344 653.835938 84.710938 664.476562 C 78.125 685.628906 74.554688 707.566406 72.632812 729.574219 C 30.832031 730.847656 46.847656 738.175781 23.074219 735.199219 C -0.683594 732.226562 5.917969 722.988281 -21.820312 719.035156 C -49.542969 715.070312 -30.359375 721.996094 -53.464844 716.714844 C -76.570312 711.429688 -85.171875 707.226562 -94.421875 709.132812 C -115.988281 713.589844 -138.175781 719.199219 -153.585938 733.941406 C -167.515625 747.25 -191.242188 778.6875 -169.570312 794.628906 C -161.445312 800.609375 -147.191406 802.355469 -131.425781 802.34375 " fill-opacity="1" fill-rule="nonzero"/></svg>